<svg xmlns="http://www.w3.org/2000/svg" xmlns:xlink="http://www.w3.org/1999/xlink" width="280.115" height="249.978" viewBox="0 0 280.115 249.978">
  <defs>
    <linearGradient id="linear-gradient" x1="0.5" y1="1" x2="0.5" gradientUnits="objectBoundingBox">
      <stop offset="0" stop-color="gray" stop-opacity="0.251"/>
      <stop offset="0.54" stop-color="gray" stop-opacity="0.122"/>
      <stop offset="1" stop-color="gray" stop-opacity="0.102"/>
    </linearGradient>
    <linearGradient id="linear-gradient-2" x1="0.5" y1="1" x2="0.5" y2="0" xlink:href="#linear-gradient"/>
  </defs>
  <g id="undraw_medicine_b1ol" transform="translate(0.062 0.006)">
    <ellipse id="Ellipse_9" data-name="Ellipse 9" cx="26.641" cy="4.971" rx="26.641" ry="4.971" transform="translate(67.511 239.89)" fill="#6c63ff" opacity="0.1"/>
    <ellipse id="Ellipse_10" data-name="Ellipse 10" cx="33.244" cy="4.971" rx="33.244" ry="4.971" transform="translate(189.946 240.03)" fill="#6c63ff" opacity="0.1"/>
    <path id="Path_93" data-name="Path 93" d="M59.569,396.83H87.317v43.938H61.6c-.068.451-.134.905-.205,1.359H87.317v35.435c-.046-.016-.087-.035-.131-.054-.733-.337-1.46-.692-2.187-1.074l-.465-.245q-1.094-.6-2.187-1.271c-.254-.156-.509-.318-.76-.483a47.214,47.214,0,0,1-10.9-9.9c-.093-.1-.18-.216-.273-.318-.443-.559-.878-1.124-1.3-1.7l-.465-.635c-.5-.708-.979-1.436-1.446-2.173-.068-.108-.134-.216-.205-.318a49.984,49.984,0,0,1-4.7-9.878c-.038-.1-.071-.219-.107-.318q-.563-1.683-1-3.4c-.126-.48-.246-.953-.35-1.452-.038-.146-.071-.289-.1-.432C59.183,436.874,59,429.559,59,422.295v-2.541c0-2.938.03-5.9.074-8.849,0-.765.027-1.528.041-2.3q.057-2.925.164-5.851c.016-.543.038-1.083.063-1.623q0-.467.041-.934C59.448,399.069,59.5,397.948,59.569,396.83Z" transform="translate(-55.436 -288.546)" fill="#6c63ff" opacity="0.1"/>
    <path id="Path_94" data-name="Path 94" d="M122.121,194.8H106.9a135.285,135.285,0,0,1,8.1-12.947c2.261-3.227,4.648-6.372,7.125-9.4Z" transform="translate(-90.24 -136.301)" fill="#6c63ff" opacity="0.1"/>
    <path id="Path_95" data-name="Path 95" d="M89.061,247.09v46.2H61.4c0-.133.019-.27.027-.4.025-.365.049-.731.077-1.093.03-.426.063-.854.1-1.271s.074-.924.115-1.385.079-.927.126-1.388.087-.921.137-1.379.093-.921.145-1.378c.041-.381.085-.759.129-1.14.063-.537.128-1.077.2-1.61a1.709,1.709,0,0,1,.03-.238q.749-5.86,2.037-11.6a95.667,95.667,0,0,1,3.431-11.752,94.13,94.13,0,0,1,5.162-11.549Z" transform="translate(-57.18 -186.833)" fill="#6c63ff" opacity="0.1"/>
    <path id="Path_96" data-name="Path 96" d="M186.8,166.679v44.2h54.233v-44.2Zm0,45.565V250.2c.31.083.618.163.923.23.415.1.828.195,1.251.275.08.016.163.032.25.042.165.035.335.064.5.093.418.073.833.134,1.251.182.2.026.4.048.6.067l.483.048h0c.263.026.523.045.781.054.16,0,.32.019.485.026h1.784a5.385,5.385,0,0,0,.643-.026h.015a2.646,2.646,0,0,0,.448-.026.823.823,0,0,0,.125,0,2.029,2.029,0,0,0,.37-.022h.088l.838-.083c.275-.032.553-.074.833-.112l.57-.086A40.711,40.711,0,0,0,205.9,249c5.059-1.8,10.007-4.323,15.064-6.17,6.537-2.38,13.76-3.55,20.077-.639V212.244Zm54.233-94.772V58.629a55.43,55.43,0,0,0-17.621,2.639C209.679,65.674,197.358,75.23,186.8,87.436v30.034h2.722v1.364H186.8v46.482h54.233V118.837H200.7v-1.364ZM310.692,97.6a19.011,19.011,0,0,1-9.83-3.649c-5.842-4.058-10.508-10.323-15.722-15.611-10.833-11.013-24.268-17.659-38.051-19.308v58.444h77.42l.193-.259Zm7.053-1.6,7.478,10.48V93.251a24.949,24.949,0,0,0-7.468,2.735Zm7.478,163.628V212.244H309.288c-.043-.2-.085-.406-.135-.61.048.2.088.409.133.61H247.1v34.267c.59.559,1.173,1.147,1.751,1.745h0c.623.639,1.238,1.313,1.856,1.975l.623.658c.3.319.6.639.9.939q.9.933,1.819,1.84c.3.32.613.607.921.907a127.334,127.334,0,0,0,15.419,12.879q1.809,1.278,3.65,2.5c.818.534,1.641,1.064,2.467,1.578q1.861,1.16,3.753,2.237h0a116.251,116.251,0,0,0,36.527,13.589q4.2.792,8.434,1.246V259.624h.25ZM247.1,118.837v46.479h78.133V118.837Zm0,47.843v44.2h78.133v-44.2Zm84.2-73.486v14.755l9.545-13.375a82.915,82.915,0,0,0-9.545-1.4Zm0,73.5V210.88h75.994v-44.2Zm75.716,96.44.268-50.891H331.3v76.863a106.768,106.768,0,0,0,14.686-.224h.085q3.5-.281,6.973-.818h.053a107.206,107.206,0,0,0,35.827-12.208m33.024-101.9c-.285-.859-.583-1.713-.886-2.556-.565-1.6-1.163-3.15-1.779-4.7h-5.929V210.88h14.991a118.263,118.263,0,0,0-6.39-36.938Zm-8.594,38.3v43.772a64.063,64.063,0,0,0,10.36-17.844,75.783,75.783,0,0,0,4.618-25.934Zm0-58.444v11.5h5.374q-2.439-5.939-5.367-11.518Zm-51.538-51.952c-.4-.192-.791-.387-1.188-.575a91.731,91.731,0,0,0-12.837-4.927l-14.606,20.471h0l-.28.38.188.262h51.984a105.608,105.608,0,0,0-23.252-15.627ZM386.6,118.852H332.363L331.3,120.1v45.216h76v-21.9a124.549,124.549,0,0,0-20.7-24.576Z" transform="translate(-148.295 -58.63)" fill="#6c63ff" opacity="0.1"/>
    <path id="Path_97" data-name="Path 97" d="M89.061,320.46v22.9H61.4c0-.133.019-.27.027-.4.025-.365.049-.731.077-1.093.03-.426.063-.854.1-1.271s.074-.924.115-1.385.079-.928.126-1.388.087-.921.137-1.379.093-.921.145-1.379c.041-.381.085-.759.129-1.14.063-.537.128-1.077.2-1.61a1.71,1.71,0,0,1,.03-.238q.749-5.86,2.037-11.6Z" transform="translate(-57.18 -236.8)" fill="#6c63ff" opacity="0.1"/>
    <path id="Path_98" data-name="Path 98" d="M59.569,396.83H87.317v43.938H61.6c-.068.451-.134.905-.205,1.359H87.317v35.435c-.046-.016-.087-.035-.131-.054-.733-.337-1.46-.692-2.187-1.074l-.465-.245q-1.094-.6-2.187-1.271c-.254-.156-.509-.318-.76-.483a47.214,47.214,0,0,1-10.9-9.9c-.093-.1-.18-.216-.273-.318-.443-.559-.878-1.124-1.3-1.7l-.465-.635c-.5-.708-.979-1.436-1.446-2.173-.068-.108-.134-.216-.205-.318a49.984,49.984,0,0,1-4.7-9.878c-.038-.1-.071-.219-.107-.318q-.563-1.683-1-3.4c-.126-.48-.246-.953-.35-1.452-.038-.146-.071-.289-.1-.432C59.183,436.874,59,429.559,59,422.295v-2.541c0-2.938.03-5.9.074-8.849,0-.765.027-1.528.041-2.3q.057-2.925.164-5.851c.016-.543.038-1.083.063-1.623q0-.467.041-.934C59.448,399.069,59.5,397.948,59.569,396.83Z" transform="translate(-55.436 -288.546)" fill="#6c63ff" opacity="0.1"/>
    <path id="Path_99" data-name="Path 99" d="M160.424,180.484v39.59H139.56v-39.59h2.975v-13.4h12.21v13.4Z" transform="translate(-101.055 -113.647)" fill="#6c63ff" opacity="0.1"/>
    <rect id="Rectangle_15" data-name="Rectangle 15" width="20.861" height="43.938" transform="translate(38.508 108.125)" fill="#6c63ff" opacity="0.1"/>
    <path id="Path_100" data-name="Path 100" d="M186.8,539.44h20.864v36.528a47.945,47.945,0,0,1-7.505,1.852l-.623.089c-.306.041-.61.076-.91.111s-.612.06-.916.083h-.1c-.131,0-.273.019-.4.022h-.139c-.164,0-.328.019-.492.025h0c-.232.016-.465.019-.7.022h-1.936l-.528-.022c-.273,0-.569-.035-.853-.057h0l-.525-.044-.653-.07c-.459-.048-.916-.108-1.367-.181l-.547-.089-.273-.044c-.457-.083-.908-.172-1.367-.273-.336-.067-.67-.149-1.009-.229Z" transform="translate(-148.295 -385.739)" fill="#6c63ff" opacity="0.1"/>
    <rect id="Rectangle_16" data-name="Rectangle 16" width="17.203" height="44.262" transform="translate(159.036 62.203)" fill="#6c63ff" opacity="0.1"/>
    <path id="Path_101" data-name="Path 101" d="M465.968,338.19v43.941H380.58V363.178h45.481v11.181h22.7V338.19Z" transform="translate(-286.934 -230.064)" fill="#6c63ff" opacity="0.1"/>
    <path id="Path_102" data-name="Path 102" d="M513.479,585.248h-.273v28.825q-4.621-.454-9.214-1.236A135.188,135.188,0,0,1,464.057,599.3q-5.5-2.878-10.783-6.283a137.518,137.518,0,0,1-16.853-12.8q-2.012-1.791-3.973-3.665c-.9-.867-1.8-1.756-2.715-2.62-.632-.594-1.269-1.178-1.914-1.737V538.137h67.955c-.046-.2-.093-.407-.142-.607.052.2.1.4.148.607h17.424v47.092C513.3,585.232,513.388,585.242,513.479,585.248Z" transform="translate(-334.188 -384.068)" fill="#6c63ff" opacity="0.1"/>
    <path id="Path_103" data-name="Path 103" d="M874.43,208.221H863.22v-4.047h5.025V192.12q.654.276,1.3.569v11.486h4.883Z" transform="translate(-656.967 -149.477)" fill="#6c63ff" opacity="0.1"/>
    <path id="Path_104" data-name="Path 104" d="M829.606,293.293H774.575l.019.016-.025-.016H764.36V249.031h2.893v32.716h13.219V262.371h10.92V247.09H802.6v15.294h10.92V281.76h16.085Z" transform="translate(-590.365 -186.833)" fill="#6c63ff" opacity="0.1"/>
    <path id="Path_105" data-name="Path 105" d="M764.36,396.82v43.941h65.246V396.82Zm82.957,95.664.09-34.781h-17.8V442.14H764.36V518.53a128.235,128.235,0,0,0,16.049-.222h.093q3.828-.28,7.62-.813h.057a125.208,125.208,0,0,0,39.152-12.137" transform="translate(-590.365 -288.052)" fill="#6c63ff" opacity="0.1"/>
    <path id="Path_106" data-name="Path 106" d="M1093.518,539.44h15.221a69.514,69.514,0,0,1-5.05,25.779,62.629,62.629,0,0,1-11.319,17.74V555.007h1.148Z" transform="translate(-828.694 -385.717)" fill="#6c63ff" opacity="0.1"/>
    <path id="Path_107" data-name="Path 107" d="M1111.8,456.271H1096.57V419.55h8.24A108.2,108.2,0,0,1,1111.8,456.271Z" transform="translate(-831.746 -304.183)" fill="#6c63ff" opacity="0.1"/>
    <rect id="Rectangle_17" data-name="Rectangle 17" width="9.217" height="13.877" transform="translate(166.783 74.526)" fill="#6c63ff" opacity="0.1"/>
    <rect id="Rectangle_18" data-name="Rectangle 18" width="9.217" height="3.195" transform="translate(166.783 103.431)" fill="#6c63ff" opacity="0.1"/>
    <rect id="Rectangle_19" data-name="Rectangle 19" width="9.217" height="9.323" transform="translate(166.783 108.023)" fill="#6c63ff" opacity="0.1"/>
    <rect id="Rectangle_20" data-name="Rectangle 20" width="9.217" height="13.877" transform="translate(166.783 132.387)" fill="#6c63ff" opacity="0.1"/>
    <rect id="Rectangle_21" data-name="Rectangle 21" width="9.217" height="13.877" transform="translate(166.783 161.318)" fill="#6c63ff" opacity="0.1"/>
    <path id="Path_108" data-name="Path 108" d="M715.634,664.82a1.3,1.3,0,0,1,.273.019h-.273v3.224H706.42V654.17h9.214Z" transform="translate(-539.65 -463.922)" fill="#6c63ff" opacity="0.1"/>
    <path id="Path_109" data-name="Path 109" d="M715.634,744.71v10.72q-4.621-.454-9.214-1.236V744.71Z" transform="translate(-539.637 -525.441)" fill="#6c63ff" opacity="0.1"/>
    <rect id="Rectangle_22" data-name="Rectangle 22" width="39.499" height="1.02" transform="translate(95.526 151.159)" fill="#6c63ff" opacity="0.1"/>
    <rect id="Rectangle_23" data-name="Rectangle 23" width="39.499" height="3.907" transform="translate(95.526 153.557)" fill="#6c63ff" opacity="0.1"/>
    <rect id="Rectangle_24" data-name="Rectangle 24" width="39.499" height="6.283" transform="translate(95.526 170.373)" fill="#6c63ff" opacity="0.1"/>
    <path id="Path_110" data-name="Path 110" d="M472.4,652.15v6.283H441.5q-2.012-1.785-3.975-3.665c-.9-.867-1.8-1.757-2.715-2.617Z" transform="translate(-337.471 -462.581)" fill="#6c63ff" opacity="0.1"/>
    <path id="Path_111" data-name="Path 111" d="M534.962,712.219V718.5H531.7q-5.5-2.881-10.78-6.286Z" transform="translate(-401.137 -503.264)" fill="#6c63ff" opacity="0.1"/>
    <rect id="Rectangle_25" data-name="Rectangle 25" width="7.776" height="9.033" transform="translate(196.313 112.306)" fill="#6c63ff" opacity="0.1"/>
    <rect id="Rectangle_26" data-name="Rectangle 26" width="7.776" height="9.033" transform="translate(44.108 69.979)" fill="#6c63ff" opacity="0.1"/>
    <rect id="Rectangle_27" data-name="Rectangle 27" width="7.776" height="9.033" transform="translate(44.108 91.08)" fill="#6c63ff" opacity="0.1"/>
    <rect id="Rectangle_28" data-name="Rectangle 28" width="7.776" height="9.033" transform="translate(44.108 112.181)" fill="#6c63ff" opacity="0.1"/>
    <rect id="Rectangle_29" data-name="Rectangle 29" width="7.776" height="9.033" transform="translate(44.108 133.279)" fill="#6c63ff" opacity="0.1"/>
    <rect id="Rectangle_30" data-name="Rectangle 30" width="7.776" height="9.033" transform="translate(44.108 154.38)" fill="#6c63ff" opacity="0.1"/>
    <rect id="Rectangle_31" data-name="Rectangle 31" width="7.776" height="9.033" transform="translate(44.108 175.481)" fill="#6c63ff" opacity="0.1"/>
    <rect id="Rectangle_32" data-name="Rectangle 32" width="7.776" height="9.033" transform="translate(219.731 112.306)" fill="#6c63ff" opacity="0.1"/>
    <rect id="Rectangle_33" data-name="Rectangle 33" width="7.776" height="9.033" transform="translate(196.313 134.713)" fill="#6c63ff" opacity="0.1"/>
    <rect id="Rectangle_34" data-name="Rectangle 34" width="7.776" height="9.033" transform="translate(219.731 134.713)" fill="#6c63ff" opacity="0.1"/>
    <rect id="Rectangle_35" data-name="Rectangle 35" width="7.776" height="9.033" transform="translate(196.313 157.118)" fill="#6c63ff" opacity="0.1"/>
    <rect id="Rectangle_36" data-name="Rectangle 36" width="7.776" height="9.033" transform="translate(219.731 157.118)" fill="#6c63ff" opacity="0.1"/>
    <rect id="Rectangle_37" data-name="Rectangle 37" width="7.776" height="9.033" transform="translate(196.313 179.525)" fill="#6c63ff" opacity="0.1"/>
    <rect id="Rectangle_38" data-name="Rectangle 38" width="7.776" height="9.033" transform="translate(219.731 179.525)" fill="#6c63ff" opacity="0.1"/>
    <rect id="Rectangle_39" data-name="Rectangle 39" width="7.776" height="9.033" transform="translate(196.313 202.152)" fill="#6c63ff" opacity="0.1"/>
    <rect id="Rectangle_40" data-name="Rectangle 40" width="7.776" height="9.033" transform="translate(219.731 202.152)" fill="#6c63ff" opacity="0.1"/>
    <path id="Path_112" data-name="Path 112" d="M775.83,708.155V702.33H783.6v5Z" transform="translate(-579.517 -477.899)" fill="#6c63ff" opacity="0.1"/>
    <path id="Path_113" data-name="Path 113" d="M65.24,357v5.168H91.851V357Zm2.652,4.844H65.721v-4.526h2.187Zm2.649,0H68.354v-4.526h2.187Zm2.644,0H71v-4.526h2.187Zm2.649,0H73.65v-4.526h2.187Zm2.647,0H76.294v-4.526h2.187Zm2.649,0H78.943v-4.526H81.13Zm2.649,0H81.592v-4.526H83.78Zm2.647,0H84.239v-4.526h2.187Zm2.647,0H86.886v-4.526h2.187Zm2.647,0H89.532v-4.526h2.187Z" transform="translate(-59.97 -261.706)" fill="#6c63ff" opacity="0.1"/>
    <path id="Path_114" data-name="Path 114" d="M65.24,404.34v5.168H91.851V404.34Zm2.652,4.841H65.721v-4.514h2.187Zm2.649,0H68.354v-4.514h2.187Zm2.644,0H71v-4.514h2.187Zm2.649,0H73.65v-4.514h2.187Zm2.647,0H76.294v-4.514h2.187Zm2.649,0H78.943v-4.514H81.13Zm2.649,0H81.592v-4.514H83.78Zm2.647,0H84.239v-4.514h2.187Zm2.647,0H86.886v-4.514h2.187Zm2.647,0H89.532v-4.514h2.187Z" transform="translate(-59.97 -293.926)" fill="#6c63ff" opacity="0.1"/>
    <path id="Path_115" data-name="Path 115" d="M65.24,451.7v5.177H91.851V451.7Zm2.652,4.841H65.721v-4.517h2.187Zm2.649,0H68.354v-4.517h2.187Zm2.644,0H71v-4.517h2.187Zm2.649,0H73.65v-4.517h2.187Zm2.647,0H76.294v-4.517h2.187Zm2.649,0H78.943v-4.517H81.13Zm2.649,0H81.592v-4.517H83.78Zm2.647,0H84.239v-4.517h2.187Zm2.647,0H86.886v-4.517h2.187Zm2.647,0H89.532v-4.517h2.187Z" transform="translate(-59.97 -326.159)" fill="#6c63ff" opacity="0.1"/>
    <path id="Path_116" data-name="Path 116" d="M65.24,499.06v5.161H91.851V499.06Zm2.652,4.841H65.721v-4.52h2.187Zm2.649,0H68.354v-4.52h2.187Zm2.644,0H71v-4.52h2.187Zm2.649,0H73.65v-4.52h2.187Zm2.647,0H76.294v-4.52h2.187Zm2.649,0H78.943v-4.52H81.13Zm2.649,0H81.592v-4.52H83.78Zm2.647,0H84.239v-4.52h2.187Zm2.647,0H86.886v-4.52h2.187Zm2.647,0H89.532v-4.52h2.187Z" transform="translate(-59.97 -358.392)" fill="#6c63ff" opacity="0.1"/>
    <path id="Path_117" data-name="Path 117" d="M65.66,546.41c.107.486.227.972.353,1.452v-1.128H68.2v4.517H67.03c.036.1.071.219.107.318h25.02V546.41Zm5.195,4.841H68.667v-4.517h2.187Zm2.644,0H71.311v-4.517H73.5Zm2.649,0H73.955v-4.517h2.187Zm2.647,0H76.607v-4.517h2.187Zm2.649,0H79.257v-4.517h2.187Zm2.649,0H81.906v-4.517h2.187Zm2.647,0H84.552v-4.517H86.74Zm2.647,0H87.2v-4.517h2.187Zm2.647,0H89.846v-4.517h2.187Z" transform="translate(-60.275 -390.619)" fill="#6c63ff" opacity="0.1"/>
    <path id="Path_118" data-name="Path 118" d="M88.26,593.77c.068.1.134.216.205.318h1.446v2.169c.156.216.309.432.468.635v-2.817h2.187v4.533H91.68c.088.1.172.216.273.318h16.631V593.77Zm6.947,4.838H93.02v-4.514h2.187Zm2.649,0H95.669v-4.514h2.187Zm2.649,0H98.319v-4.514h2.187Zm2.647,0h-2.187v-4.514h2.187Zm2.647,0h-2.187v-4.514H105.8Zm2.647,0h-2.187v-4.514h2.187Z" transform="translate(-76.696 -422.852)" fill="#6c63ff" opacity="0.1"/>
    <path id="Path_119" data-name="Path 119" d="M141.65,641.12c.249.165.5.318.76.483v-.159H144.6v1.429l.465.251v-1.68h2.187v2.747a.621.621,0,0,0,.131.057V641.12Z" transform="translate(-115.489 -455.087)" fill="#6c63ff" opacity="0.1"/>
    <path id="Path_120" data-name="Path 120" d="M362.858,290.352ZM346.016,384.1Zm-17.572-47.7c.052.2.1.407.145.607h0C328.545,336.805,328.5,336.6,328.444,336.4Zm34.414-46.057ZM197.72,242.78v1.356h12.213V242.78ZM346.016,384.1Zm-17.572-47.7c.052.2.1.407.145.607h0C328.545,336.805,328.5,336.6,328.444,336.4Zm34.414-46.057Zm-16.842,93.746ZM328.444,336.4c.052.2.1.407.145.607h0C328.545,336.805,328.5,336.6,328.444,336.4Z" transform="translate(-156.229 -183.555)" fill="#6c63ff" opacity="0.1"/>
    <path id="Path_121" data-name="Path 121" d="M353.916,288.083s-1.077-.175-1.077-2a32.763,32.763,0,0,0-.771-5.228h0c0-.016-.667-5.93-1.589-6.87s-2.105-6.461-2.105-6.461a14.909,14.909,0,0,0-.615-3.64,33.389,33.389,0,0,1-1.794-4.475c-.823-2.252-4.254-3.812-4.254-3.812s-6.2-4.18-7.962-5.543h0a2.777,2.777,0,0,1-.446-.391c-.306-.467-1.64-.476-1.64-.476-.139-1.023-.273-2.2-.317-3.262a2.878,2.878,0,0,0-.014-.343,10.825,10.825,0,0,0,4.159-5.978c.033-.121.06-.248.09-.368a.951.951,0,0,0,.533-.559,13.017,13.017,0,0,1,.358-1.271c.23-.451.667-.692,1.012-1.032a4.9,4.9,0,0,0,1.053-3.618c-.027-1.064-.175-2.138-.118-3.2l.016-.267c.016-.159.036-.318.06-.47.134-.788.427-1.531.591-2.312a3.406,3.406,0,0,0-.2-2.335,3.267,3.267,0,0,0-2.753-1.286c-1.162-.114-2.2.035-2.945-1.086a11.985,11.985,0,0,0-1.17-1.642c-.153-.165-1.64-1.22-1.64-1.29a5.8,5.8,0,0,0-4.634-.413c-.771.26-1.5.686-2.28.9-1.687.464-3.628-.038-5.061,1.083a6.9,6.9,0,0,0-1.725,2.63q-.547,1.217-1.11,2.43a17.248,17.248,0,0,0-1.474,4.158,7.623,7.623,0,0,0-.1.972h0v.518a1.975,1.975,0,0,0,.016.318c.016.1.014.13.022.2s.022.216.038.318.049.28.082.419c.014.06.033.118.049.175.027.108.06.213.1.318.019.054.038.111.06.165a3.17,3.17,0,0,0,.139.318c.022.044.038.086.06.127a4.308,4.308,0,0,0,.252.426c.585.848,1.446,1.388,2.083,2.182v.356a11.372,11.372,0,0,0,4.26,8.878c0,.121.014.245.019.365a21.11,21.11,0,0,1-.03,2.83,1.086,1.086,0,0,0-.908-.47,1.133,1.133,0,0,0-.35.035l-.025-.022h0v.029c-.6.172-1.342.9-2.051,2.967,0,0-2.154,2.821-3.795,2.7s-5.793,2.935-5.793,2.935-4.052,3.056-4.921,6.168a47.9,47.9,0,0,1-1.744,5.171l-5.009,11.991h0l-.924,9.513s.511,4.231.41,4.876,2.1,6.461,2.1,6.461,7.281,14.862,10.256,15.624l.213-.175a1.6,1.6,0,0,0,.4.175l.612-.5a9,9,0,0,1-.047,1.677c-.41,1.467.153,11.044.869,12.921s.462,26.491.462,26.491l-.1,2.173a1.062,1.062,0,0,0,.025.191l-.025.515.074.045a7.09,7.09,0,0,1-.074,2.068,26.573,26.573,0,0,0-.361,3.646s-2.048,15.208-1.077,18.264,1.8,6.4,1.8,6.4,1.025,3.812.049,4.463-3.751,1.744-3.18,3.332c.52,1.467,2.491,5.4,2.783,5.975l-.025.3-.4,5.06a7.166,7.166,0,0,0,.462,1.931,2.886,2.886,0,0,0,2.923,2.122c.273-.022.591-.06.9-.108a34.574,34.574,0,0,0,6.644-2.007,2.846,2.846,0,0,1-.519-.5h0a1.894,1.894,0,0,1-.457-1.27c.044-.921-1.441-5.311-1.81-6.391-.057-.156-.088-.245-.088-.245s3.385-4.11,2.822-7.753c0,0-3.746-2.541-2.513-3.935a44.728,44.728,0,0,0,3.437-5.4s.1-14.976,0-17.212a21.472,21.472,0,0,1,.189-4.647c.041-.232.09-.457.142-.68a30.825,30.825,0,0,0,5.151.454c.629,0,1.269,0,1.914-.044q0,.318.025.686c.142,3.71.407,10.215.623,12.632.306,3.465,2,12.8,2,12.8s-3.229,2.408.563,8.341a9.282,9.282,0,0,1-.252,2.462h0a30.605,30.605,0,0,0-.648,3.1,6.319,6.319,0,0,0,.033,2.836c.615,1.4,4.306,1.29,4.306,1.29h0l.09-.019a4.8,4.8,0,0,1,3.907,1.369c1.4,1.309,6.726.734,9.608.318,1.129-.165,1.884-.318,1.884-.318a1.467,1.467,0,0,0,.038-.457h0c-.03-.823-.585-2.627-4.347-4.237,0,0-3.538-2.763-3.489-5.171h-.484a3.324,3.324,0,0,1,.489,0s-1.386-5.876-.82-6.353-1.129-6.988-1.129-6.988-.971-10.927-1.023-11.692a7.673,7.673,0,0,1,.254-1.938l-.254-5.991s-.049-1.992,0-2.64a15.268,15.268,0,0,0-.118-1.68c-.025-.222-.049-.454-.077-.683a22.968,22.968,0,0,0,2.187-.753l-.153-20.853c1.126-2.541,1.334-8.116,1.329-12.07,0-2.541-.1-4.421-.1-4.421l1.539-2.919s.355-3.494-.208-4.259a.82.82,0,0,1,.068-1,2.89,2.89,0,0,1,.336-.267s-.016-.029-.036-.07a2.762,2.762,0,0,1,.342-.283s-.547-.985-.057-1.4c.459.362.869.635,1.181.858-.022.232-.044.365-.044.365l.131-.318.484.318s2.411-5.581,2.359-6.4,1.64-4.288,1.64-4.288a4.615,4.615,0,0,1,1.129-2.582c.924-.762.716-6.286.716-6.286a15.383,15.383,0,0,1,.872-4.053C355.092,289.668,353.916,288.083,353.916,288.083Zm-46.14-2.449.047,1.331-.47-.88Z" transform="translate(-233.617 -166.139)" fill="url(#linear-gradient)"/>
    <path id="Path_122" data-name="Path 122" d="M469.886,495.773,469.3,498.7s-4.73-2.8-5.583-6.369,1.427-4.917,1.427-4.917l4.407,2.169Z" transform="translate(-357.979 -350.444)" fill="#fff"/>
    <path id="Path_123" data-name="Path 123" d="M469.886,495.773,469.3,498.7s-4.73-2.8-5.583-6.369,1.427-4.917,1.427-4.917l4.407,2.169Z" transform="translate(-357.979 -350.444)" opacity="0.1"/>
    <path id="Path_124" data-name="Path 124" d="M361.271,801.991a30.24,30.24,0,0,1-7.382,2.1,2.835,2.835,0,0,1-2.868-2.109,7.208,7.208,0,0,1-.451-1.922l.391-5.034.208-2.681,6.389-1.928.905,3.214.085.245c.364,1.074,1.821,5.441,1.777,6.353a1.885,1.885,0,0,0,.448,1.255A2.762,2.762,0,0,0,361.271,801.991Z" transform="translate(-273.661 -556.632)" fill="#fff"/>
    <path id="Path_125" data-name="Path 125" d="M446.813,798.715a1.468,1.468,0,0,1-.038.454s-9.356,1.814-11.27,0a4.6,4.6,0,0,0-3.937-1.34s-3.62.114-4.224-1.271a6.376,6.376,0,0,1-.03-2.821,30.572,30.572,0,0,1,.634-3.084l.145-.133.861-.8,10.083-.346h.077c-.049,2.395,3.423,5.142,3.423,5.142C446.225,796.1,446.769,797.9,446.813,798.715Z" transform="translate(-331.187 -555.915)" fill="#fff"/>
    <path id="Path_126" data-name="Path 126" d="M446.816,808.1a1.5,1.5,0,0,1-.041.454s-9.353,1.814-11.267,0a4.6,4.6,0,0,0-3.934-1.34s-3.623.114-4.224-1.271a6.371,6.371,0,0,1-.033-2.82c1.394.162,3.6.565,4.459,1.528,1.307,1.464,3.521,2.925,4.88,3.04C437.72,807.767,444.082,808,446.816,808.1Z" transform="translate(-331.191 -565.298)" opacity="0.1"/>
    <path id="Path_127" data-name="Path 127" d="M362.477,825.8a30.238,30.238,0,0,1-7.382,2.1,2.829,2.829,0,0,1-2.865-2.112c1.113.435,2.658.893,3.47.473.962-.5,4.374-.816,6.288-.953A2.85,2.85,0,0,0,362.477,825.8Z" transform="translate(-274.893 -580.439)" opacity="0.1"/>
    <path id="Path_128" data-name="Path 128" d="M394.121,312.058c-3.609-1.629-8.251-7.013-7.092-9.529a6.367,6.367,0,0,0,.451-2.02,21.41,21.41,0,0,0,.033-2.859,45.231,45.231,0,0,0-.484-4.65s11.267.3,10.611,2.223a8.335,8.335,0,0,0-.169,2.646c.052,1.1.189,2.341.331,3.392.2,1.442.394,2.541.394,2.541s-.689,1.121-1.094,1.182S399.3,314.38,394.121,312.058Z" transform="translate(-300.799 -218.122)" fill="#cf6f80"/>
    <path id="Path_129" data-name="Path 129" d="M359.557,793.879l-.085.108c-3.368-4.733-7.442,1.166-7.442,1.166l-.06-.124.208-2.681,6.39-1.928.9,3.214Z" transform="translate(-274.64 -556.632)" opacity="0.1"/>
    <path id="Path_130" data-name="Path 130" d="M441.182,789.676a5.8,5.8,0,0,0-3.773,1.286c-1.312,1.347-7.655.292-7.382,0a1.161,1.161,0,0,0,.142-.483l.861-.8,10.083-.346C441.152,789.543,441.182,789.676,441.182,789.676Z" transform="translate(-333.073 -555.888)" opacity="0.1"/>
    <path id="Path_131" data-name="Path 131" d="M356.353,659.933a9.94,9.94,0,0,0-.416,1.629,21.621,21.621,0,0,0-.189,4.625c.1,2.223,0,17.123,0,17.123a46.086,46.086,0,0,1-3.368,5.374c-1.206,1.4,2.461,3.916,2.461,3.916.547,3.621-2.767,7.712-2.767,7.712-3.368-4.733-7.442,1.169-7.442,1.169s-2.215-4.447-2.767-6.035,2.163-2.687,3.117-3.332-.047-4.447-.047-4.447-.807-3.332-1.763-6.372,1.055-18.172,1.055-18.172a27.109,27.109,0,0,1,.353-3.624,7.024,7.024,0,0,0,.074-2.058c-.016-.232-.036-.426-.049-.556s-.025-.191-.025-.191l.038-.076,1.367-2.96S357.009,658.069,356.353,659.933Z" transform="translate(-267.182 -463.311)" fill="#6c63ff"/>
    <path id="Path_132" data-name="Path 132" d="M433.329,703.424a5.843,5.843,0,0,0-3.773,1.271c-1.312,1.331-7.655.292-7.382,0a8.353,8.353,0,0,0,.252-2.455c-3.721-5.9-.547-8.3-.547-8.3s-1.662-9.291-1.963-12.737c-.211-2.408-.47-8.878-.61-12.572-.06-1.588-.1-2.681-.1-2.681l3.04-.711.391-.092,7.333-1.709s.2,1.588.339,2.887a15.638,15.638,0,0,1,.115,1.674c-.049.635,0,2.624,0,2.624l.249,5.962a7.789,7.789,0,0,0-.249,1.928c.049.759,1,11.629,1,11.629s1.66,6.486,1.094,6.953S433.329,703.424,433.329,703.424Z" transform="translate(-325.072 -469.985)" fill="#6c63ff"/>
    <path id="Path_133" data-name="Path 133" d="M398.121,295.223a8.335,8.335,0,0,0-.17,2.646,8.278,8.278,0,0,1-9.957-.216A45.207,45.207,0,0,0,387.51,293S398.777,293.289,398.121,295.223Z" transform="translate(-301.278 -218.145)" opacity="0.1"/>
    <path id="Path_134" data-name="Path 134" d="M392.537,254.549a12.361,12.361,0,0,1-.459,3.37c-1.414,5.032-5.743,8.149-10.252,7.381s-7.885-5.2-8-10.49v-.26c0-6,4.188-10.869,9.355-10.869s9.356,4.866,9.356,10.869Z" transform="translate(-291.246 -184.556)" fill="#cf6f80"/>
    <path id="Path_135" data-name="Path 135" d="M394.121,328.189c-3.609-1.629-8.251-7.013-7.092-9.529a6.367,6.367,0,0,0,.451-2.02l4.94,4.717,3.057,2.913L397.8,317.4c.2,1.442.394,2.541.394,2.541s-.689,1.121-1.094,1.182S399.3,330.511,394.121,328.189Z" transform="translate(-300.799 -234.224)" opacity="0.1"/>
    <path id="Path_136" data-name="Path 136" d="M350.649,289.32l-4.126,80.52-5.381.41L327.21,323.561l2.286-55.43.481-11.711,6.2,5.911,3.059,2.913,2.392-7.074,4.448,4.5Z" transform="translate(-244.589 -174.16)" fill="#6c63ff"/>
    <path id="Path_137" data-name="Path 137" d="M363.77,659.988a9.946,9.946,0,0,0-.416,1.629,35.783,35.783,0,0,1-11.281-4.094l-.074-.044.025-.511.014-.267,1.367-2.96S364.426,658.123,363.77,659.988Z" transform="translate(-274.755 -463.656)" opacity="0.1"/>
    <path id="Path_138" data-name="Path 138" d="M422.27,672.152a24.016,24.016,0,0,1-3.024.4c-.06-1.588-.1-2.681-.1-2.681l3.04-.712Z" transform="translate(-324.736 -474.171)" opacity="0.1"/>
    <path id="Path_139" data-name="Path 139" d="M439.372,666.377a18.411,18.411,0,0,1-7.633.835L431.7,665.2l7.333-1.709S439.235,665.062,439.372,666.377Z" transform="translate(-334.234 -470.31)" opacity="0.1"/>
    <path id="Path_140" data-name="Path 140" d="M337.45,429.785c-11.21,2.223-21.476-4.151-21.476-4.151l.1-2.16s.254-24.486-.451-26.363-1.255-11.4-.856-12.858-1.457-23.371-1.457-23.371l-.3-8.894L302,346.807l4.921-11.918a47.458,47.458,0,0,0,1.712-5.146c.856-3.094,4.828-6.133,4.828-6.133s4.074-3.037,5.684-2.922S322.866,318,322.866,318c1.558-4.615,2.969-2.525,2.969-2.525a4.763,4.763,0,0,1-.077.683c-.547,5.066,8.842,21.075,8.976,21.358h0l.894,25.3.9,32.02Z" transform="translate(-237.846 -232.75)" opacity="0.1"/>
    <path id="Path_141" data-name="Path 141" d="M336.328,429.744c-11.21,2.223-21.479-4.151-21.479-4.151l.1-2.16s.254-24.486-.454-26.363-1.255-11.4-.853-12.858-1.457-23.371-1.457-23.371l-.3-8.894-11.013-5.2,4.921-11.918a48.189,48.189,0,0,0,1.712-5.146c.853-3.094,4.828-6.133,4.828-6.133s4.074-3.037,5.681-2.922,3.721-2.687,3.721-2.687c1.561-4.615,3.281-2.525,3.281-2.525,0,.219-.164.318-.077.683,1.2,4.914,8.541,21.075,8.675,21.358h0l.9,25.3.9,32.021Z" transform="translate(-236.999 -232.709)" fill="#fff"/>
    <path id="Path_142" data-name="Path 142" d="M392.067,339.758c-1.206-.584-7.593-9.056-7.593-9.056v-1.928c-.232-.635-1.613-.248-2.734.2l.481-11.711.547.527C383.966,322.7,391.927,339.475,392.067,339.758Z" transform="translate(-296.956 -234.624)" opacity="0.1"/>
    <path id="Path_143" data-name="Path 143" d="M393.169,337.548c-1.208-.584-7.6-9.056-7.6-9.056v-1.928c-.232-.635-1.613-.248-2.734.2l.484-11.711.547.527C385.071,320.488,393.035,337.268,393.169,337.548Z" transform="translate(-297.779 -233.12)" fill="#fff"/>
    <path id="Path_144" data-name="Path 144" d="M351.475,516.884c.15,0,7.795-.934,7.795-.934S363.9,526.524,363.6,529.1s-.853,4.85-2.715,4.447-10.02.318-10.02.318Z" transform="translate(-273.923 -369.843)" opacity="0.1"/>
    <path id="Path_145" data-name="Path 145" d="M350.365,514.674c.15,0,7.795-.934,7.795-.934s4.626,10.577,4.325,13.147-.856,4.85-2.715,4.447-10.02.318-10.02.318Z" transform="translate(-273.093 -368.339)" fill="#fff"/>
    <path id="Path_146" data-name="Path 146" d="M361.96,501.05s7.016,4.38,7.166,5.717-3.571-.584-4.374-.816a8.732,8.732,0,0,0-1.61-.292l-5.362.168Z" transform="translate(-279.066 -359.744)" fill="#cf6f80"/>
    <ellipse id="Ellipse_11" data-name="Ellipse 11" cx="0.738" cy="0.858" rx="0.738" ry="0.858" transform="translate(92.052 104.041)" opacity="0.1"/>
    <ellipse id="Ellipse_12" data-name="Ellipse 12" cx="0.738" cy="0.858" rx="0.738" ry="0.858" transform="translate(92.052 103.689)" fill="#3f3d56"/>
    <ellipse id="Ellipse_13" data-name="Ellipse 13" cx="0.738" cy="0.858" rx="0.738" ry="0.858" transform="translate(93.309 141.369)" opacity="0.1"/>
    <ellipse id="Ellipse_14" data-name="Ellipse 14" cx="0.738" cy="0.858" rx="0.738" ry="0.858" transform="translate(93.309 141.014)" fill="#3f3d56"/>
    <ellipse id="Ellipse_15" data-name="Ellipse 15" cx="0.738" cy="0.858" rx="0.738" ry="0.858" transform="translate(92.733 122.705)" opacity="0.1"/>
    <ellipse id="Ellipse_16" data-name="Ellipse 16" cx="0.738" cy="0.858" rx="0.738" ry="0.858" transform="translate(92.733 122.353)" fill="#3f3d56"/>
    <path id="Path_147" data-name="Path 147" d="M440.674,381.159s.5.877,0,1.286.049,1.4.049,1.4-1.255.854-.7,1.623.2,4.24.2,4.24l-1.509,2.9s.09,1.871.1,4.4c0,3.945-.2,9.491-1.3,12.019l.153,20.745s-5.285,2.242-9.709,1.56l-.656-33.288s.957-18.877,1.31-22.5a43.736,43.736,0,0,0,.252-5.67,73.359,73.359,0,0,0-.656-8.3s-.547-11.393-.6-14.547c-.025-1.509.044-5.911.12-10.1.085-4.577.18-8.894.18-8.894l-1-9.173s1-.118,1.3.349a2.978,2.978,0,0,0,.437.391h0c1.722,1.353,7.809,5.514,7.809,5.514s3.368,1.556,4.175,3.786a35.686,35.686,0,0,0,1.758,4.447,15.719,15.719,0,0,1,.6,3.621s1.159,5.5,2.064,6.426,1.567,6.851,1.567,6.851l-8,7.306s-.7,12.153-.853,12.623S440.674,381.159,440.674,381.159Z" transform="translate(-330.983 -235.384)" fill="#fff"/>
    <path id="Path_148" data-name="Path 148" d="M440.927,380.942s.5.877,0,1.286.047,1.4.047,1.4-1.247.864-.7,1.633.2,4.24.2,4.24l-1.509,2.9s.09,1.871.1,4.4c0,3.945-.2,9.491-1.3,12.019l.15,20.745s-5.293,2.243-9.711,1.56l-.653-33.288s.957-18.877,1.31-22.5a43.355,43.355,0,0,0,.249-5.67,73.825,73.825,0,0,0-.654-8.3s-.547-11.393-.6-14.548c-.025-1.509.047-5.911.12-10.1.085-4.577.18-8.894.18-8.894l-1.318-9.3s1.318,0,1.621.473a2.681,2.681,0,0,0,.437.391h0c1.722,1.353,7.811,5.514,7.811,5.514s3.366,1.556,4.172,3.786a35.1,35.1,0,0,0,1.761,4.447,15.54,15.54,0,0,1,.6,3.621s1.159,5.495,2.064,6.426,1.558,6.839,1.558,6.839l-8,7.306s-.7,12.153-.856,12.623S440.927,380.942,440.927,380.942Z" transform="translate(-330.94 -235.167)" fill="#fff"/>
    <path id="Path_149" data-name="Path 149" d="M432.156,332.028l.722,2.446-3.8,4.447c.085-4.574.18-8.894.18-8.894l-1.318-9.3s1.318,0,1.621.473a2.578,2.578,0,0,0,.437.387h0l3.232,10.831Z" transform="translate(-331.36 -236.994)" opacity="0.1"/>
    <path id="Path_150" data-name="Path 150" d="M431.046,329.818l.724,2.446-3.8,4.447c.085-4.577.18-8.894.18-8.894l-1.321-9.3s1.321,0,1.621.473a2.833,2.833,0,0,0,.437.391h0l3.234,10.828Z" transform="translate(-330.531 -235.49)" fill="#fff"/>
    <path id="Path_151" data-name="Path 151" d="M392.537,254.549a12.361,12.361,0,0,1-.459,3.37.351.351,0,0,1-.3-.086,15.311,15.311,0,0,0-2.772-7.826,7.819,7.819,0,0,0-1.5-1.811,2.656,2.656,0,0,0-2.04-.67c-.82.13-1.545.778-2.373.861-1.094.1-2.072-.775-3.158-.82a2.947,2.947,0,0,0-2.321,1.251,7.839,7.839,0,0,0-1.244,2.681,17.989,17.989,0,0,0-.694,4.625c-.014.889-.088,2-.8,2.328a5.253,5.253,0,0,0-1.031-3.624l-.016-.019v-.26c0-6,4.187-10.869,9.355-10.869s9.356,4.866,9.356,10.869Z" transform="translate(-291.246 -184.567)" opacity="0.1"/>
    <path id="Path_152" data-name="Path 152" d="M379.463,222.041a5.624,5.624,0,0,0-4.544-.413c-.757.26-1.471.683-2.239.9-1.64.461-3.554-.038-4.962,1.077a6.9,6.9,0,0,0-1.69,2.614l-1.094,2.42a17.231,17.231,0,0,0-1.446,4.129,5.975,5.975,0,0,0,.7,4.263c.58.854,1.435,1.391,2.064,2.195a5.276,5.276,0,0,1,1.028,3.621c.714-.318.782-1.436.8-2.325a17.987,17.987,0,0,1,.694-4.625,7.813,7.813,0,0,1,1.244-2.681,2.952,2.952,0,0,1,2.321-1.251c1.094.044,2.075.921,3.158.816.82-.079,1.548-.731,2.373-.858a2.646,2.646,0,0,1,2.04.67,7.739,7.739,0,0,1,1.5,1.811,15.268,15.268,0,0,1,2.775,7.826c.309.264.755-.079.908-.486a12.987,12.987,0,0,1,.353-1.271c.224-.448.653-.686.99-1.023a4.965,4.965,0,0,0,1.033-3.6,20.814,20.814,0,0,1-.038-3.913c.129-.788.418-1.525.577-2.3a3.45,3.45,0,0,0-.2-2.322,3.152,3.152,0,0,0-2.7-1.271c-1.14-.114-2.16.032-2.887-1.083a11.988,11.988,0,0,0-1.148-1.633C380.926,223.159,379.463,222.111,379.463,222.041Z" transform="translate(-283.574 -169.347)" fill="#512e4e"/>
    <path id="Path_153" data-name="Path 153" d="M303.522,421.267l-2.857-6.137-.9,9.469s.5,4.205.4,4.85,2.061,6.426,2.061,6.426,7.144,14.783,10.061,15.545l9.856-8.182-2.614-3.856s-.9-.41-1.132,0c0,0-4.853-9.7-5.356-10.4a3.989,3.989,0,0,1-.4-2.1,2.337,2.337,0,0,1-.5-1.81c.252-.877-1.457-3.916-1.457-3.916l1.558-1.693Z" transform="translate(-235.896 -301.177)" opacity="0.1"/>
    <path id="Path_154" data-name="Path 154" d="M299.21,412.93l-.755.7-.9,9.469s.5,4.205.4,4.85,2.064,6.426,2.064,6.426,7.141,14.783,10.059,15.545l9.859-8.182-2.616-3.856s-.9-.41-1.132,0c0,0-4.853-9.7-5.356-10.4a3.977,3.977,0,0,1-.4-2.1,2.337,2.337,0,0,1-.5-1.81c.252-.877-1.46-3.916-1.46-3.916l1.558-1.693Z" transform="translate(-234.241 -299.678)" fill="#fff"/>
    <path id="Path_155" data-name="Path 155" d="M459.731,517.557c.547.772.2,4.237.2,4.237l-1.509,2.9s.09,1.874.1,4.4l-2.537.921a1.341,1.341,0,0,1-1.36-.277,1.868,1.868,0,0,1-.595-1.448l.437-16.393,5.919,2.63c-.5.407.049,1.4.049,1.4S459.179,516.785,459.731,517.557Z" transform="translate(-350.886 -367.086)" opacity="0.1"/>
    <path id="Path_156" data-name="Path 156" d="M460.834,516.454c.547.772.2,4.24.2,4.24l-1.509,2.9s.09,1.871.1,4.4l-2.584.937a1.314,1.314,0,0,1-1.331-.272,1.831,1.831,0,0,1-.582-1.417l.44-16.444,5.922,2.63c-.506.407.046,1.4.046,1.4S460.287,515.685,460.834,516.454Z" transform="translate(-351.708 -366.337)" fill="#fff"/>
    <path id="Path_157" data-name="Path 157" d="M470.585,498.505s-.4,2.983-1.408,3.157-1.457,4.825-2.461,4.66-.339-4.323-.3-5.13-1.094-4.148-.249-4.907,3.519,0,3.519,0Z" transform="translate(-359.672 -356.257)" fill="#cf6f80"/>
    <path id="Path_158" data-name="Path 158" d="M469.983,422.137l1.9-4.447a33.129,33.129,0,0,1,.755,5.2c0,1.811,1.055,1.988,1.055,1.988s1.157,1.588.547,2.744a15.141,15.141,0,0,0-.856,4.034s.2,5.492-.705,6.251a4.591,4.591,0,0,0-1.094,2.573s-1.662,3.446-1.61,4.266-2.313,6.369-2.313,6.369a9.351,9.351,0,0,0-5.583-9.875s-.052-2.341.451-2.983,1.288-.934.8-4.177a43.974,43.974,0,0,1-.142-7.9,55.762,55.762,0,0,1,1.509-5.632Z" transform="translate(-357.075 -302.929)" opacity="0.1"/>
    <path id="Path_159" data-name="Path 159" d="M472.322,415.69l1.657.635a33.019,33.019,0,0,1,.757,5.2c0,1.811,1.055,1.988,1.055,1.988s1.157,1.588.547,2.744a15.1,15.1,0,0,0-.853,4.034s.2,5.492-.705,6.251a4.647,4.647,0,0,0-1.107,2.573s-1.66,3.446-1.608,4.266-2.316,6.369-2.316,6.369a9.347,9.347,0,0,0-5.583-9.875s-.049-2.341.454-2.983,1.288-.934.8-4.177a43.971,43.971,0,0,1-.142-7.9,55.764,55.764,0,0,1,1.509-5.632Z" transform="translate(-358.639 -301.566)" fill="#fff"/>
    <path id="Path_160" data-name="Path 160" d="M360.15,776.331s2.641-1.928,4.374-.527S360.15,776.331,360.15,776.331Z" transform="translate(-280.691 -546.31)" opacity="0.1"/>
    <path id="Path_161" data-name="Path 161" d="M435.21,759.753a4.935,4.935,0,0,1,4.3,2.106C441.474,764.314,435.21,759.753,435.21,759.753Z" transform="translate(-336.776 -535.694)" opacity="0.1"/>
    <g id="Group_1" data-name="Group 1" transform="translate(79.806 58.992)" opacity="0.1">
      <path id="Path_162" data-name="Path 162" d="M396.829,259.982a4.33,4.33,0,0,0-.992,1.026,13.02,13.02,0,0,0-.35,1.271c-.153.413-.6.75-.908.489a15.335,15.335,0,0,0-2.775-7.83,7.741,7.741,0,0,0-1.5-1.81,2.653,2.653,0,0,0-2.042-.67c-.82.13-1.542.778-2.37.858-1.094.108-2.075-.772-3.161-.816a2.941,2.941,0,0,0-2.318,1.255,7.792,7.792,0,0,0-1.244,2.678,18.01,18.01,0,0,0-.694,4.625c-.016.886-.087,1.992-.793,2.322a5.049,5.049,0,0,1,0,.705c.711-.318.782-1.436.8-2.325a17.988,17.988,0,0,1,.694-4.625,7.812,7.812,0,0,1,1.244-2.681,2.947,2.947,0,0,1,2.319-1.251c1.094.044,2.078.921,3.161.816.82-.079,1.548-.731,2.37-.858a2.653,2.653,0,0,1,2.042.67,7.739,7.739,0,0,1,1.5,1.811,15.292,15.292,0,0,1,2.775,7.826c.309.264.755-.079.908-.486s.159-.883.35-1.271c.224-.448.656-.686.992-1.023a4.965,4.965,0,0,0,1.033-3.6v-.121A4.546,4.546,0,0,1,396.829,259.982Z" transform="translate(-373.772 -249.538)"/>
      <path id="Path_163" data-name="Path 163" d="M366.26,265.173c-.629-.8-1.487-1.34-2.064-2.192a5.143,5.143,0,0,1-.8-2.6,5.482,5.482,0,0,0,.8,3.3c.577.854,1.435,1.391,2.064,2.195a5.184,5.184,0,0,1,1.031,2.833,5.267,5.267,0,0,0-1.031-3.535Z" transform="translate(-363.385 -254.955)"/>
      <path id="Path_164" data-name="Path 164" d="M451.686,243.929c-.161.778-.448,1.518-.58,2.3a8.5,8.5,0,0,0-.085,1.588,7.128,7.128,0,0,1,.085-.9c.131-.788.418-1.525.58-2.3a4.519,4.519,0,0,0,.09-1.315A5.068,5.068,0,0,1,451.686,243.929Z" transform="translate(-427.056 -243.3)"/>
    </g>
    <ellipse id="Ellipse_17" data-name="Ellipse 17" cx="26.641" cy="4.971" rx="26.641" ry="4.971" transform="translate(9.997 232.994)" fill="#6c63ff" opacity="0.1"/>
    <rect id="Rectangle_41" data-name="Rectangle 41" width="1.714" height="44.84" transform="translate(35.782 142.325)" fill="#535461"/>
    <path id="Path_165" data-name="Path 165" d="M160.7,637.973l-.107,2.02-.153,2.859-.063,1.188-.15,2.859-.066,1.188-.153,2.859-1.728,32.421c-.156,2.9-2.222,5.151-4.719,5.152H144.58c-2.5,0-4.562-2.257-4.716-5.152l-1.72-32.443-.153-2.859-.063-1.188-.153-2.859-.063-1.188-.153-2.859-.109-2.02a3.142,3.142,0,0,1,.669-2.127,2.312,2.312,0,0,1,1.791-.894h18.376a2.306,2.306,0,0,1,1.775.914A3.131,3.131,0,0,1,160.7,637.973Z" transform="translate(-112.434 -450.53)" fill="#3f3d56"/>
    <path id="Path_166" data-name="Path 166" d="M113.628,592.24l-.153,2.849H90.733l-.153-2.849Z" transform="translate(-65.466 -403.095)" fill="#9d9cb5"/>
    <path id="Path_167" data-name="Path 167" d="M113.986,604.95l-.15,2.852H91.523l-.153-2.852Z" transform="translate(-66.04 -411.745)" fill="#9d9cb5"/>
    <path id="Path_168" data-name="Path 168" d="M114.344,617.68l-.15,2.849H92.313l-.153-2.849Z" transform="translate(-66.614 -420.41)" fill="#9d9cb5"/>
    <path id="Path_169" data-name="Path 169" d="M69.759,537.628c9.982,8.392,14.149,21.516,14.149,21.516a40.265,40.265,0,0,1-22.015-8.872C51.909,541.881,47.75,528.76,47.75,528.76A40.235,40.235,0,0,1,69.759,537.628Z" transform="translate(-47.262 -378.51)" fill="#6c63ff"/>
    <path id="Path_170" data-name="Path 170" d="M47.72,528.76s12.489,8.052,16.495,14.719,19.672,15.666,19.672,15.666" transform="translate(-47.24 -378.51)" fill="none" stroke="#535461" stroke-miterlimit="10" stroke-width="2"/>
    <path id="Path_171" data-name="Path 171" d="M119.981,493.088c5.433,4.564,7.7,11.708,7.7,11.708a21.926,21.926,0,0,1-11.983-4.825c-5.435-4.564-7.7-11.711-7.7-11.711A21.91,21.91,0,0,1,119.981,493.088Z" transform="translate(-91.039 -351.005)" fill="#6c63ff"/>
    <path id="Path_172" data-name="Path 172" d="M108,488.26s6.8,4.383,8.976,8.011,10.709,8.525,10.709,8.525" transform="translate(-91.039 -351.005)" fill="none" stroke="#535461" stroke-miterlimit="10" stroke-width="2"/>
    <path id="Path_173" data-name="Path 173" d="M188.752,516.662c-6.242,7.969-7.562,18.384-7.562,18.384a32.515,32.515,0,0,0,15.037-10.482c6.236-7.973,7.562-18.384,7.562-18.384A32.573,32.573,0,0,0,188.752,516.662Z" transform="translate(-144.218 -363.153)" fill="#6c63ff"/>
    <path id="Path_174" data-name="Path 174" d="M203.8,506.19s-8.131,8.169-10.2,13.8-12.407,15.065-12.407,15.065" transform="translate(-144.218 -363.16)" fill="none" stroke="#535461" stroke-miterlimit="10" stroke-width="2"/>
    <path id="Path_175" data-name="Path 175" d="M883.834,348.391s-4.514-26.09-2.786-29.336c0,0-10.581-32.516-10.685-36.363,0-.146,2.617.149,2.617,0,.3.235-.328-2.478,0-2.29,1.592.95-.837.449.911,0v2.29h-.911c-.328-.422.071.559,0,0s.741.5.911,0c1.3-3.812,2.5,2.91,0,0-2.113-2.446,1.383,2.233-.911,0-1.676-1.636,3.677,2.319,2.808,0a39.591,39.591,0,0,1-1.9-6.013c-.328-1.623-.459-3.3-.911-4.888a6.143,6.143,0,0,0-2.617-3.834,9.238,9.238,0,0,1-1.422-.727,6.969,6.969,0,0,1-1.31-1.788c-2.07-3.176-9-1.305-12.281-.016a6.7,6.7,0,0,0-2.428,1.563l.03-.057c.025-.048.055-.1.082-.143a4.843,4.843,0,0,0-.919,1.191c-.478.88-.678,1.906-1.077,2.859-.481,1.128-3.158,4.275-2.007,5.543a.966.966,0,0,0,.273.2,2.061,2.061,0,0,0,1.367.159l-.049.137a10.61,10.61,0,0,0-.593,3.522c0,5.219,3.7,9.45,8.279,9.45a7.3,7.3,0,0,0,2.534-.454c.019.121.036.241.055.362a1.289,1.289,0,0,0,.019.143h0l-.145.235a.305.305,0,0,0-.025-.041l-4.293,6.969c-.656.537-4.435,3.713-4.648,6.1-.224,2.608-.448,5.66-.448,5.66l-.03.654a1.526,1.526,0,0,1-1.367.429c-1.34-.254-1.34,5.717-1.34,5.717s-.891.953-1.5.127-2.231,1.973-2.231,1.973l-10.143.508h0l-.232.016-.547-1.966a.7.7,0,0,0-.894-.53.765.765,0,0,0-.123.06l-.038.025-.071.057-.036.038a.62.62,0,0,0-.055.067l-.033.044-.016.019h0a.909.909,0,0,0-.1.712l.47,1.687c-1.957.457-3.959,1.747-2.327,5.3l-8.273-1.776,2.677,2.611,13.818,3.313c-.183.381-.063.934.508,1.712,2.461,3.357,6.945,4.269,8.749,4.5A18.884,18.884,0,0,0,850,337.614l-.156,3.345s-4.569,25.493-5.405,26.786a15.114,15.114,0,0,0,1.156-1.769c-1.326,5.238-3.18,12.407-3.666,13.48-.782,1.715-1.506,8.655-.615,9.1a6.468,6.468,0,0,0,2.171-.029v.575l-.049,21.786s.224,13.363-.391,14.637a14.2,14.2,0,0,0-.779,3.945s-2.461,5.27-4.41,7.388a.315.315,0,0,1-.044.044l-.06-.5a8.794,8.794,0,0,1-7.527,3.243s-3.12,2.357,1.506,2.484,10.534-.191,10.534-.191,4.126-7.306,7.582-6.353v5.536H850.9V435.5a5.149,5.149,0,0,0,1.884-3.313,4.383,4.383,0,0,0-1.236-3.726,2.567,2.567,0,0,1-.675-1.741l-.038.038c0-.111-.025-.226-.036-.343-.3-2.859-.683-8.757.659-13.121,1.84-5.984,2.4-14.319,1.058-19.28q-.648-2.379-1.064-4.831c-.033-.207-.063-.4-.09-.588a18.954,18.954,0,0,1,2.715.635c3.1.994,9.892,1.178,15.688,1.124.014.184.03.378.049.572a23.845,23.845,0,0,0,.645,3.977c.727,2.541,1.061,13.744,1.061,13.744s.938,9.211.427,12.959c-.273,2.084-.547,4.177-.7,6.28v.041s-1.537,5.082-2.66,7.842c-.027.07-.058.14-.085.206a3.14,3.14,0,0,0-.878.226s-1.506,3.494-3.007,4.072-1,2.481,2.4,1.782,8.53-1.271,8.53-1.271l.221-3.564,1.044-1.518-.273,3.554,1.113-.254-.148-4.323,1.709-2.484s2.064-2.134-1-6.334v.092c-.033-.06-.063-.124-.1-.184v-.019c-.508-.915-.913-2.62-.172-5.648,1.34-5.47,2.119-10.434,2.119-10.434s2.991-13.3-.6-19.592h.159a11.837,11.837,0,0,1-.774-2.8q-.027-.172-.049-.353a17.472,17.472,0,0,0,7.4-1.944C886.177,384.976,884.894,353.416,883.834,348.391ZM850.06,326.379v.064l-.547.032Zm-1.876.3a.573.573,0,0,0-.246.137,3.1,3.1,0,0,0-.429,1.305l-.853-.222s-.6-.149-1.46-.318l-.407-.476C845.909,327,847.074,326.84,848.184,326.681Z" transform="translate(-632.587 -197.209)" fill="url(#linear-gradient-2)"/>
    <path id="Path_176" data-name="Path 176" d="M971.645,742.165l-.325,4.5,1.091-.254-.164-4.882Z" transform="translate(-727.825 -504.648)" fill="#1d2366"/>
    <path id="Path_177" data-name="Path 177" d="M889.189,676.995c-1.315,4.352-.943,10.225-.648,13.077.109,1.055.211,1.7.211,1.7s-1.966,5.2-2.13,5.4-5.785,4.183-5.785,4.183l-3.929,2.665s-3.986-2.03-2.075-2.728a2.929,2.929,0,0,0,1.031-.816c1.914-2.112,4.317-7.363,4.317-7.363a14.436,14.436,0,0,1,.766-3.932c.6-1.267.383-14.586.383-14.586l.047-21.71v-2.83l7.478.064a22.689,22.689,0,0,0,.323,2.859q.4,2.44,1.042,4.815C891.534,662.739,890.988,671.033,889.189,676.995Z" transform="translate(-665.592 -460.848)" fill="#7e7d7d"/>
    <path id="Path_178" data-name="Path 178" d="M888.751,777.76s-1.966,5.2-2.13,5.4-5.785,4.183-5.785,4.183l-3.929,2.665s-3.986-2.03-2.075-2.729a2.927,2.927,0,0,0,1.031-.816l.169,1.388,1.31-.064,11.21-11.717C888.65,777.118,888.751,777.76,888.751,777.76Z" transform="translate(-665.457 -546.84)" opacity="0.1"/>
    <path id="Path_179" data-name="Path 179" d="M870.158,777l-11.273,11.8-1.31.064-.273-2.224a8.576,8.576,0,0,1-7.382,3.234s-3.057,2.347,1.474,2.474,10.316-.191,10.316-.191,4.041-7.305,7.423-6.353v5.517h1.039v-5.568a5.14,5.14,0,0,0,1.843-3.3,4.413,4.413,0,0,0-1.206-3.71A2.587,2.587,0,0,1,870.158,777Z" transform="translate(-646.992 -547.474)" fill="#1d2366"/>
    <path id="Path_180" data-name="Path 180" d="M996.568,683.271c-.727,3.018-.331,4.717.167,5.628v.019a11.4,11.4,0,0,1,1.307,3.707l.044.286-5.129,8.687-2.783,1.271s-4.476-1.776-3.658-2.284a5.023,5.023,0,0,0,.891-1.7c1.094-2.748,2.6-7.817,2.6-7.817v-.041c.159-2.093.41-4.18.689-6.257.5-3.739-.418-12.915-.418-12.915s-.328-11.158-1.039-13.7a23.994,23.994,0,0,1-.637-3.951c-.148-1.588-.18-2.9-.18-2.9s2.947-4.764,8.35.381a6.63,6.63,0,0,1,1.129,1.423c3.732,6.168.727,19.757.727,19.757S997.878,677.817,996.568,683.271Z" transform="translate(-751.709 -460.339)" fill="#717070"/>
    <path id="Path_181" data-name="Path 181" d="M998.115,777.808l-5.129,8.687-2.783,1.27s-4.476-1.776-3.658-2.284a5.023,5.023,0,0,0,.891-1.7c1.895-.019,2.876,2.077,2.876,2.077l2.4-.445s3.166-7.229,3.877-7.671.109-3.3.109-3.3v-.727c.019.025.036.054.057.079v.019a11.4,11.4,0,0,1,1.307,3.707Z" transform="translate(-751.73 -545.236)" opacity="0.1"/>
    <path id="Path_182" data-name="Path 182" d="M980.671,786.446s-1.367-2.916-3.986-1.839c0,0-1.474,3.494-2.947,4.059s-.982,2.471,2.349,1.776,8.35-1.271,8.35-1.271l.219-3.554,3.385-5.009s2.018-2.125-.984-6.308v.727s.6,2.859-.109,3.3S983.079,786,983.079,786Z" transform="translate(-741.924 -545.632)" fill="#1d2366"/>
    <path id="Path_183" data-name="Path 183" d="M907.626,650.094a22.688,22.688,0,0,0,.323,2.859,29.563,29.563,0,0,0-7.809-.092v-2.83Z" transform="translate(-684.363 -461.153)" opacity="0.1"/>
    <path id="Path_184" data-name="Path 184" d="M1003.572,653.9s-4.374.248-9.591.3c-.148-1.588-.181-2.9-.181-2.9s2.947-4.764,8.35.381a6.627,6.627,0,0,1,1.129,1.423q.127.406.293.794Z" transform="translate(-757.074 -460.644)" opacity="0.1"/>
    <path id="Path_185" data-name="Path 185" d="M928.812,533.8s-19.16,1.077-25-.826-11.628-.254-12.5-.7-.164-7.356.6-9.068,4.965-19.026,4.965-19.026l4.041-24.477,4.257-1.363.3-.1,7.418-2.376,5.435-1.744s10.808,49.02,9.881,52.635a10.71,10.71,0,0,0-.159,4.253A11.885,11.885,0,0,0,928.812,533.8Z" transform="translate(-682.315 -341.212)" fill="#1d2366"/>
    <path id="Path_186" data-name="Path 186" d="M870.647,439s-3.828,4.764-.93,7.42,4.8.254,4.8.254Z" transform="translate(-660.703 -317.506)" fill="#c7daf5"/>
    <path id="Path_187" data-name="Path 187" d="M870.647,439s-3.828,4.764-.93,7.42,4.8.254,4.8.254Z" transform="translate(-660.703 -317.506)" opacity="0.1"/>
    <path id="Path_188" data-name="Path 188" d="M967.349,321.723s-.448.5-1.124,1.226c-.962,1.045-2.387,2.573-3.65,3.853-1.75,1.769-3.193,3.068-2.677,1.96s.418-3.04.161-4.847c-.019-.121-.036-.241-.055-.359a37.809,37.809,0,0,0-.845-3.926,66.336,66.336,0,0,1,4.391-5.918c.582-.635.99-.9,1.014-.454a16.577,16.577,0,0,0,.886,3.3c.014.045.027.086.044.13.317.953.675,1.931.99,2.776C966.966,320.757,967.349,321.723,967.349,321.723Z" transform="translate(-731.905 -231.764)" fill="#b7b4b4"/>
    <path id="Path_189" data-name="Path 189" d="M965.495,316.693a9.113,9.113,0,0,1-5.435,7.229,37.525,37.525,0,0,0-.9-4.285s5.323-7.988,5.405-6.372A16.966,16.966,0,0,0,965.495,316.693Z" transform="translate(-731.905 -231.783)" opacity="0.1"/>
    <path id="Path_190" data-name="Path 190" d="M933.306,351.578,934,350.45s.457,3.233,2.135,1.807,1.761,10.733,1.761,10.733l-1.8,31.3-13.02-.905.369-15.122,1.474-7.623,3.644-11.082,2.168-3.662Z" transform="translate(-701.947 -257.151)" opacity="0.1"/>
    <path id="Path_191" data-name="Path 191" d="M937.913,363.566l-1.641,28.3-.172,3-7.259-.505-.273-.019-5.468-.381.369-15.126,1.474-7.623,3.645-11.082,2.168-3.662,2.581-4.329.689-1.124s.457,3.233,2.135,1.807l.036-.029h0C937.837,351.582,937.913,363.566,937.913,363.566Z" transform="translate(-701.969 -257.532)" fill="#1d2366"/>
    <path id="Path_192" data-name="Path 192" d="M885.672,406.26s-.653,1.588-1.966,1.331-1.31,5.717-1.31,5.717-.872.953-1.474.127-2.187,1.966-2.187,1.966l-9.936.508s4.421,2.347,3.554,9.45c0,0,15.01-1.08,15.5-2.728S885.672,406.26,885.672,406.26Z" transform="translate(-661.623 -295.195)" fill="#fff"/>
    <path id="Path_193" data-name="Path 193" d="M885.672,406.26s-.653,1.588-1.966,1.331-1.31,5.717-1.31,5.717-.872.953-1.474.127-2.187,1.966-2.187,1.966l-9.936.508s4.421,2.347,3.554,9.45c0,0,15.01-1.08,15.5-2.728S885.672,406.26,885.672,406.26Z" transform="translate(-661.623 -295.195)" opacity="0.03"/>
    <path id="Path_194" data-name="Path 194" d="M777.66,389.76l2.619,2.6,21.561,5.263-2.674-3.17Z" transform="translate(-581.841 -265.269)" fill="#fff"/>
    <path id="Path_195" data-name="Path 195" d="M919.179,350.77a70.624,70.624,0,0,0-2.239,6.727c-.714,2.366-1.31,4.447-1.31,4.447s-1.392,10.526-2.1,12.429-.325,9.323-.325,9.323l-2.649,18.324s-1.2,9.45-3.054,15.094a28.754,28.754,0,0,1-3.929,8.243c.82-1.29,5.29-26.681,5.29-26.681l1.476-32.024s.216-3.043.435-5.644,4.648-6.153,4.648-6.153l4.271-7.055C920.119,348.467,919.832,349.63,919.179,350.77Z" transform="translate(-687.458 -255.229)" fill="#fff"/>
    <path id="Path_196" data-name="Path 196" d="M893.6,471.629s-6.288-.318-9.334-4.568,7.04-1.7,7.04-1.7l2.622.7Z" transform="translate(-672.216 -334.937)" fill="#9f999a"/>
    <path id="Path_197" data-name="Path 197" d="M966.125,446.456a10.707,10.707,0,0,0-.159,4.253,45.229,45.229,0,0,1-14.2-1.588,31.525,31.525,0,0,1-4.968,3.615l-1.963-28.269c-1.255-3.812-1.747-23.781-1.747-23.781s.112-1.045.273-2.611a.346.346,0,0,1,.014-.117c.489-4.374,1.46-12.585,1.936-13.693.656-1.525-2.018-5.581-2.018-5.581l1.217-12.054.148-1.455c2.565-1.331,4.53-5.581,4.53-5.581l1.509-3.071h0c1.64-1.223,1.725,10.761,1.725,10.761l-1.64,28.3,5.435-1.744S967.051,442.841,966.125,446.456Z" transform="translate(-720.229 -261.006)" opacity="0.1"/>
    <path id="Path_198" data-name="Path 198" d="M974.037,432.146c-7.478,4.314-21.069.318-21.069.318A31.523,31.523,0,0,1,948,436.078l-1.966-28.269c-1.252-3.812-1.744-23.781-1.744-23.781s1.58-14.9,2.237-16.422a2.812,2.812,0,0,0-.129-1.817,26.441,26.441,0,0,1-1.2-10.637l.525-5.181.145-1.452c2.567-1.334,4.533-5.584,4.533-5.584l1.367-2.782,2.515-5.127,1.192-2.427.2.213,1.545,1.626,1.641,1.588c2.141,2.1,5.84,5.787,7.748,8.046,1.679,1.988,2.209,9.723,2.362,15.545.1,3.834.041,6.839.041,6.839-1.692,3.237,2.734,29.222,2.734,29.222C972.782,400.7,974.037,432.146,974.037,432.146Z" transform="translate(-721.101 -244.772)" fill="#fff"/>
    <path id="Path_199" data-name="Path 199" d="M939.442,363.978s-5.132,11.349-4.536,15.663,2.291,9.2,1.474,10.336a2.9,2.9,0,0,1-2.4,1.394,7.765,7.765,0,0,0-3.008,2.03c0,.191-2.02.191-3.828,1.08a21.2,21.2,0,0,1-4.476,1.394s-5.195-.191-5.679.381-.982,3.993.055,6.721,2.187,4.764,3.057,5.136,6.387-1.776,10.862-2.284,9.334-4.628,9.334-4.628,5.351-2.223,6.288-5.962-1.146-24.286-1.146-24.286S943.863,361.376,939.442,363.978Z" transform="translate(-700.86 -266.046)" opacity="0.03"/>
    <path id="Path_200" data-name="Path 200" d="M937.063,360.979s-5.132,11.352-4.53,15.662,2.291,9.2,1.471,10.339a2.89,2.89,0,0,1-2.4,1.394,7.764,7.764,0,0,0-3.008,2.03c0,.191-2.02.191-3.828,1.077a21.413,21.413,0,0,1-4.476,1.394s-5.195-.191-5.676.381-.984,4,.055,6.721,2.187,4.764,3.057,5.136,6.387-1.776,10.863-2.281,9.334-4.631,9.334-4.631,5.348-2.223,6.275-5.959-1.146-24.289-1.146-24.289S941.484,358.381,937.063,360.979Z" transform="translate(-699.137 -264.007)" opacity="0.03"/>
    <path id="Path_201" data-name="Path 201" d="M938.866,362.187s-5.132,11.352-4.53,15.662,2.291,9.2,1.474,10.336a2.89,2.89,0,0,1-2.4,1.4,7.8,7.8,0,0,0-3.008,2.026c0,.187-2.018.191-3.828,1.08a21.25,21.25,0,0,1-4.476,1.394s-5.195-.191-5.679.381-.982,4,.055,6.721,2.187,4.764,3.057,5.136,6.387-1.776,10.862-2.284,9.334-4.628,9.334-4.628,5.351-2.223,6.288-5.962-1.132-24.286-1.132-24.286S943.285,359.6,938.866,362.187Z" transform="translate(-700.446 -264.831)" fill="#fff"/>
    <path id="Path_202" data-name="Path 202" d="M991.682,458.391s-4.1-.953-2.674.635,1.419,2.979,3.166,2.916S991.682,458.391,991.682,458.391Z" transform="translate(-753.374 -330.524)" opacity="0.1"/>
    <path id="Path_203" data-name="Path 203" d="M1023.653,566.58s-1.854,1.458,1.692,4.818S1023.653,566.58,1023.653,566.58Z" transform="translate(-778.413 -404.345)" opacity="0.1"/>
    <path id="Path_204" data-name="Path 204" d="M1011.789,604.31c0,.19-.656,6.988,1.8,8.687S1011.789,604.31,1011.789,604.31Z" transform="translate(-770.087 -430.011)" opacity="0.1"/>
    <path id="Path_205" data-name="Path 205" d="M857.036,436.59c-1.979.079-6.255.781-4.038,5.587,1.96,4.253,5.255,1.41,7.109-.746A8.134,8.134,0,0,0,857.036,436.59Z" transform="translate(-648.659 -315.868)" fill="#a58f8f"/>
    <path id="Path_206" data-name="Path 206" d="M881.39,451Z" transform="translate(-669.9 -325.697)" fill="#ffb0b1"/>
    <path id="Path_207" data-name="Path 207" d="M880.74,451.5l.082-.1Z" transform="translate(-669.419 -325.969)" fill="#ffb0b1"/>
    <path id="Path_208" data-name="Path 208" d="M962.68,336.624c-2.1,1.668-3.861,3.075-4.205,3.367-.941.81-2.734,5.565-3.891,7.992-.921,1.953-3.915,2.455-5.044,2.579l.145-1.452c2.567-1.334,4.533-5.584,4.533-5.584l5.075-10.336,1.747,1.845Z" transform="translate(-724.915 -245.475)" opacity="0.1"/>
    <path id="Path_209" data-name="Path 209" d="M962.68,336.024c-2.1,1.668-3.861,3.075-4.205,3.37-.941.807-2.734,5.562-3.891,7.988-.921,1.953-3.915,2.455-5.044,2.579l.145-1.452c2.567-1.334,4.533-5.584,4.533-5.584l5.075-10.336,1.747,1.839S961.7,335.058,962.68,336.024Z" transform="translate(-724.915 -245.067)" fill="#dce7ff"/>
    <path id="Path_210" data-name="Path 210" d="M939.715,297.683a10.5,10.5,0,0,1-1.427,5.339c-2.271,3.837-6.615,5.171-10.222,3.138s-5.393-6.822-4.2-11.27,5-7.219,8.96-6.521,6.893,4.656,6.894,9.313Z" transform="translate(-702.357 -214.899)" fill="#c6b7b7"/>
    <path id="Path_211" data-name="Path 211" d="M947.573,299.782c-1.11-.793-.5,4.119-1.1,2.776-.457-1.048.779-2.033,0-2.776-.7-.667.875-1.8,0-2.1-2.876-.988-3,20.249-3.091,16.768-.044-1.639.4-3.275.2-4.9a5.918,5.918,0,0,0-.913-2.525,8.343,8.343,0,0,0-.79-.988c-.383-.419-.785-.826-1.135-1.271a4.977,4.977,0,0,1-.574-.905,4.762,4.762,0,0,1-.314-.842c-.547-1.944-.049-4.25-.651-6.216l-.033-.108c-.227-.7-.689-1.4-1.332-1.452s-1.192.565-1.8.842c-1.282.578-2.666-.407-3.735-1.41s-2.275-2.15-3.634-1.928a10.959,10.959,0,0,0-2.439,1.229,3.068,3.068,0,0,1-.577.194c1.446-4.19,5.248-6.6,9.063-5.742s6.57,4.737,6.568,9.251a10.791,10.791,0,0,1-.178,1.966c.014.044.027.086.044.13.317.953.675,1.931.99,2.776l1.545,1.626,1.64,1.588c2.141,2.1.343-5.473,2.251-3.214C949.251,304.553,947.414,293.96,947.573,299.782Z" transform="translate(-707.557 -214.884)" opacity="0.1"/>
    <path id="Path_212" data-name="Path 212" d="M921.446,272.649c.391-.924.585-1.96,1.053-2.836a5.929,5.929,0,0,1,3.114-2.576c3.213-1.286,10-3.154,12.03,0a6.732,6.732,0,0,0,1.282,1.779,8.934,8.934,0,0,0,1.391.727,6.119,6.119,0,0,1,2.559,3.812c.44,1.569.571,3.253.894,4.869a39.732,39.732,0,0,0,1.859,5.994c.85,2.306-8.044-5.123-6.4-3.494,2.239,2.223,1.572,4.726,3.65,7.166,2.461,2.9-1.29-.619-2.559,3.176-.167.5-.065-10.873,0-10.342s3.77,6.743,4.09,7.166h-4.09c-3.182.893,4.041-.283,2.559-3.672-.457-1.048-2.868,4.418-3.65,3.672-.7-.667,1.963-3.373,1.091-3.672-2.876-.991.09,3.481,0,0-.044-1.636-.891,11.009-1.091,9.389a5.894,5.894,0,0,0-.916-2.541c-.752-1.14-1.886-1.906-2.5-3.176-1.036-2.125-.249-4.885-1-7.166-.23-.7-.689-1.4-1.331-1.452s-1.192.565-1.807.842c-1.279.578-2.663-.4-3.732-1.41s-2.275-2.15-3.636-1.925a10.677,10.677,0,0,0-2.436,1.229c-.612.273-1.854.518-2.39-.083C918.351,276.914,920.973,273.779,921.446,272.649Z" transform="translate(-702.872 -199.394)" fill="#591d4b"/>
    <path id="Path_213" data-name="Path 213" d="M942.128,291.508c-.459-1.048,2.844,2.929,2.063,2.186-.7-.667-1.188-1.887-2.062-2.186-2.874-.988.093,3.481,0,0-.044-1.636-2.1,9.507-2.3,7.887a5.922,5.922,0,0,0-.916-2.525c-.755-1.14-1.889-1.906-2.5-3.176-1.036-2.122-.249-4.882-1-7.166-.227-.7-.689-1.394-1.329-1.452s-1.195.569-1.807.845c-1.28.578-2.666-.407-3.732-1.41s-2.277-2.15-3.636-1.928a10.881,10.881,0,0,0-2.436,1.229c-.612.273-1.857.521-2.392-.079-1.127-1.271,1.5-4.4,1.966-5.524.391-.927.585-1.96,1.055-2.836.025-.048.052-.1.079-.143a4.9,4.9,0,0,0-.9,1.188c-.467.877-.662,1.906-1.053,2.836-.473,1.124-3.095,4.263-1.966,5.524.547.6,1.777.356,2.39.083a10.514,10.514,0,0,1,2.436-1.229c1.367-.226,2.57.921,3.636,1.925s2.461,1.988,3.735,1.41c.612-.276,1.148-.9,1.8-.842s1.094.753,1.332,1.452c.746,2.281-.041,5.041,1,7.166.612,1.248,1.747,2.03,2.5,3.176a5.894,5.894,0,0,1,.916,2.541c.2,1.62,3.075-10.587,3.119-8.951.09,3.494-2.876,1.195,0,2.186.867.3,1.363-2.853,2.063-2.186.785.746-2.511,1.138-2.062,2.186,1.482,3.389-1.12,1.941,2.063,1.048l-2.062-3.234C939.369,291.556,943.388,294.392,942.128,291.508Z" transform="translate(-701.622 -208.575)" opacity="0.1"/>
    <path id="Path_214" data-name="Path 214" d="M950.047,351.3a70.593,70.593,0,0,0-2.239,6.727c-.8-.362-1.528-2.671-1.528-2.671l4.271-7.058C950.988,349,950.7,350.158,950.047,351.3Z" transform="translate(-722.546 -255.775)" opacity="0.1"/>
    <path id="Path_215" data-name="Path 215" d="M950.648,350.708a70.6,70.6,0,0,0-2.239,6.727c-.8-.359-1.528-2.671-1.528-2.671l4.271-7.055C951.588,348.406,951.3,349.568,950.648,350.708Z" transform="translate(-722.983 -255.373)" fill="#dce7ff"/>
    <path id="Path_216" data-name="Path 216" d="M863.459,438.4l-2.368-8.675a.929.929,0,0,1,.045-.619.736.736,0,0,1,.409-.4h0a.686.686,0,0,1,.875.527l2.368,8.665-.235,1.814Z" transform="translate(-654.921 -310.471)" fill="#be8b87"/>
    <path id="Path_217" data-name="Path 217" d="M861.615,428.995h0a.686.686,0,0,1,.878.527l2.368,8.665-.178,1.359.172.21.235-1.814-2.381-8.665a.686.686,0,0,0-.875-.527h0a.721.721,0,0,0-.364.318A.888.888,0,0,1,861.615,428.995Z" transform="translate(-655.222 -310.498)" fill="#837f7f" opacity="0.1"/>
    <path id="Path_218" data-name="Path 218" d="M822.6,399.629l1.329-.489-.194,1.487-.041.327-.388-.47Z" transform="translate(-614.107 -271.67)" fill="#efc8c4"/>
    <path id="Path_219" data-name="Path 219" d="M872.42,461.776a.288.288,0,0,1,.085-.083.106.106,0,0,1,.128,0,.407.407,0,0,1,.047.086.236.236,0,0,0,.169.13l-.041.318Z" transform="translate(-663.224 -332.959)" fill="#727a9c"/>
    <path id="Path_220" data-name="Path 220" d="M861.13,441.7s4.749-.032,3.631,2.316a4.339,4.339,0,0,1-2.865,2.63Z" transform="translate(-654.978 -319.354)" fill="#747474"/>
    <path id="Path_221" data-name="Path 221" d="M587.066,110.05h-.205c-8.158,0-15.374,5.015-19.524,12.416-4.15-7.4-11.365-12.416-19.524-12.416h-.205c-12.743.141-23.011,12.178-23.018,26.983,0,8.833,3.33,21.367,9.824,31.681,12.372,19.652,32.924,36.845,32.924,36.845s20.552-17.19,32.921-36.845c6.5-10.314,9.823-22.847,9.823-31.681-.007-14.8-10.273-26.84-23.015-26.983Zm-2.934,60.175a4.685,4.685,0,0,1-4.284-3.437h-4.878a1.582,1.582,0,0,1-1.452-1.22l-1.5-5.244L567.28,179.57a1.586,1.586,0,0,1-1.471,1.286h-.1a1.617,1.617,0,0,1-1.422-1.474l-4.886-34.139-3.571,20.2a1.586,1.586,0,0,1-1.479,1.344h-6.871a1.49,1.49,0,0,1-1.377-.865,2.025,2.025,0,0,1,0-1.819,1.49,1.49,0,0,1,1.377-.865h5.668l5.058-27.161a1.588,1.588,0,0,1,1.555-1.364,1.639,1.639,0,0,1,1.452,1.51l4.99,34.825,4.249-17.219a1.559,1.559,0,0,1,1.43-1.271h.03a1.566,1.566,0,0,1,1.449,1.22l2.709,9.469h3.713c.733-2.586,3.026-4.113,5.317-3.54a5.294,5.294,0,0,1,3.592,5.768c-.248,2.707-2.214,4.76-4.557,4.76Z" transform="translate(-406.411 -75.934)" fill="#6c63ff"/>
  </g>
</svg>
