<svg id="Group_27" data-name="Group 27" xmlns="http://www.w3.org/2000/svg" width="1920" height="115.904" viewBox="0 0 1920 115.904">
  <g id="Path_808" data-name="Path 808" fill="rgba(47,79,214,0.97)">
    <path d="M 1919.5 115.403450012207 L 0.5 115.403450012207 L 0.5 0.5001155734062195 L 1919.5 0.5001155734062195 L 1919.5 115.403450012207 Z" stroke="none"/>
    <path d="M 1 1.000114440917969 L 1 114.903450012207 L 1919 114.903450012207 L 1919 1.000114440917969 L 1 1.000114440917969 M 0 0.00011444091796875 L 1920 0.00011444091796875 L 1920 115.903450012207 L 0 115.903450012207 L 0 0.00011444091796875 Z" stroke="none" fill="#707070"/>
  </g>
  <g id="Group_23" data-name="Group 23" transform="translate(-650 -436)">
    <g id="Ellipse_126" data-name="Ellipse 126" transform="translate(672 458)" fill="#fff" stroke="#707070" stroke-width="1">
      <ellipse cx="10.5" cy="11" rx="10.5" ry="11" stroke="none"/>
      <ellipse cx="10.5" cy="11" rx="10" ry="10.5" fill="none"/>
    </g>
    <g id="Ellipse_127" data-name="Ellipse 127" transform="translate(693 458)" fill="#fff" stroke="#707070" stroke-width="1">
      <ellipse cx="10.5" cy="11" rx="10.5" ry="11" stroke="none"/>
      <ellipse cx="10.5" cy="11" rx="10" ry="10.5" fill="none"/>
    </g>
    <g id="Ellipse_128" data-name="Ellipse 128" transform="translate(714 458)" fill="#fff" stroke="#707070" stroke-width="1">
      <ellipse cx="10.5" cy="11" rx="10.5" ry="11" stroke="none"/>
      <ellipse cx="10.5" cy="11" rx="10" ry="10.5" fill="none"/>
    </g>
    <g id="Ellipse_129" data-name="Ellipse 129" transform="translate(714 477)" fill="#fff" stroke="#707070" stroke-width="1">
      <ellipse cx="10.5" cy="11" rx="10.5" ry="11" stroke="none"/>
      <ellipse cx="10.5" cy="11" rx="10" ry="10.5" fill="none"/>
    </g>
    <g id="Ellipse_130" data-name="Ellipse 130" transform="translate(693 477)" fill="#fff" stroke="#707070" stroke-width="1">
      <ellipse cx="10.5" cy="11" rx="10.5" ry="11" stroke="none"/>
      <ellipse cx="10.5" cy="11" rx="10" ry="10.5" fill="none"/>
    </g>
    <g id="Ellipse_131" data-name="Ellipse 131" transform="translate(672 477)" fill="#fff" stroke="#707070" stroke-width="1">
      <ellipse cx="10.5" cy="11" rx="10.5" ry="11" stroke="none"/>
      <ellipse cx="10.5" cy="11" rx="10" ry="10.5" fill="none"/>
    </g>
    <g id="Ellipse_132" data-name="Ellipse 132" transform="translate(714 499)" fill="#fff" stroke="#707070" stroke-width="1">
      <ellipse cx="10.5" cy="11" rx="10.5" ry="11" stroke="none"/>
      <ellipse cx="10.5" cy="11" rx="10" ry="10.5" fill="none"/>
    </g>
    <g id="Ellipse_133" data-name="Ellipse 133" transform="translate(693 499)" fill="#fff" stroke="#707070" stroke-width="1">
      <ellipse cx="10.5" cy="11" rx="10.5" ry="11" stroke="none"/>
      <ellipse cx="10.5" cy="11" rx="10" ry="10.5" fill="none"/>
    </g>
    <g id="Ellipse_135" data-name="Ellipse 135" transform="translate(693 518)" fill="#fff" stroke="#707070" stroke-width="1">
      <ellipse cx="10.5" cy="11" rx="10.5" ry="11" stroke="none"/>
      <ellipse cx="10.5" cy="11" rx="10" ry="10.5" fill="none"/>
    </g>
    <g id="Ellipse_134" data-name="Ellipse 134" transform="translate(672 499)" fill="#fff" stroke="#707070" stroke-width="1">
      <ellipse cx="10.5" cy="11" rx="10.5" ry="11" stroke="none"/>
      <ellipse cx="10.5" cy="11" rx="10" ry="10.5" fill="none"/>
    </g>
  </g>
  <g id="Group_24" data-name="Group 24" transform="translate(1153 -441)">
    <g id="Ellipse_126-2" data-name="Ellipse 126" transform="translate(672 458)" fill="#fff" stroke="#707070" stroke-width="1">
      <ellipse cx="10.5" cy="11" rx="10.5" ry="11" stroke="none"/>
      <ellipse cx="10.5" cy="11" rx="10" ry="10.5" fill="none"/>
    </g>
    <g id="Ellipse_127-2" data-name="Ellipse 127" transform="translate(693 458)" fill="#fff" stroke="#707070" stroke-width="1">
      <ellipse cx="10.5" cy="11" rx="10.5" ry="11" stroke="none"/>
      <ellipse cx="10.5" cy="11" rx="10" ry="10.5" fill="none"/>
    </g>
    <g id="Ellipse_128-2" data-name="Ellipse 128" transform="translate(714 458)" fill="#fff" stroke="#707070" stroke-width="1">
      <ellipse cx="10.5" cy="11" rx="10.5" ry="11" stroke="none"/>
      <ellipse cx="10.5" cy="11" rx="10" ry="10.5" fill="none"/>
    </g>
    <g id="Ellipse_129-2" data-name="Ellipse 129" transform="translate(714 477)" fill="#fff" stroke="#707070" stroke-width="1">
      <ellipse cx="10.5" cy="11" rx="10.5" ry="11" stroke="none"/>
      <ellipse cx="10.5" cy="11" rx="10" ry="10.5" fill="none"/>
    </g>
    <g id="Ellipse_130-2" data-name="Ellipse 130" transform="translate(693 477)" fill="#fff" stroke="#707070" stroke-width="1">
      <ellipse cx="10.5" cy="11" rx="10.5" ry="11" stroke="none"/>
      <ellipse cx="10.5" cy="11" rx="10" ry="10.5" fill="none"/>
    </g>
    <g id="Ellipse_131-2" data-name="Ellipse 131" transform="translate(672 477)" fill="#fff" stroke="#707070" stroke-width="1">
      <ellipse cx="10.5" cy="11" rx="10.5" ry="11" stroke="none"/>
      <ellipse cx="10.5" cy="11" rx="10" ry="10.5" fill="none"/>
    </g>
    <g id="Ellipse_132-2" data-name="Ellipse 132" transform="translate(714 499)" fill="#fff" stroke="#707070" stroke-width="1">
      <ellipse cx="10.5" cy="11" rx="10.5" ry="11" stroke="none"/>
      <ellipse cx="10.5" cy="11" rx="10" ry="10.5" fill="none"/>
    </g>
    <g id="Ellipse_133-2" data-name="Ellipse 133" transform="translate(693 499)" fill="#fff" stroke="#707070" stroke-width="1">
      <ellipse cx="10.5" cy="11" rx="10.5" ry="11" stroke="none"/>
      <ellipse cx="10.5" cy="11" rx="10" ry="10.5" fill="none"/>
    </g>
    <g id="Ellipse_135-2" data-name="Ellipse 135" transform="translate(693 518)" fill="#fff" stroke="#707070" stroke-width="1">
      <ellipse cx="10.5" cy="11" rx="10.5" ry="11" stroke="none"/>
      <ellipse cx="10.5" cy="11" rx="10" ry="10.5" fill="none"/>
    </g>
    <g id="Ellipse_134-2" data-name="Ellipse 134" transform="translate(672 499)" fill="#fff" stroke="#707070" stroke-width="1">
      <ellipse cx="10.5" cy="11" rx="10.5" ry="11" stroke="none"/>
      <ellipse cx="10.5" cy="11" rx="10" ry="10.5" fill="none"/>
    </g>
  </g>
</svg>
