<svg xmlns="http://www.w3.org/2000/svg" width="1920" height="139" viewBox="0 0 1920 139">
  <g id="Group_28" data-name="Group 28" transform="translate(0 -271)">
    <g id="Rectangle_95" data-name="Rectangle 95" transform="translate(0 271)" fill="#081748" stroke="#707070" stroke-width="1">
      <rect width="1920" height="139" stroke="none"/>
      <rect x="0.5" y="0.5" width="1919" height="138" fill="none"/>
    </g>
    <g id="Group_25" data-name="Group 25" transform="translate(-650 -147)">
      <g id="Ellipse_126" data-name="Ellipse 126" transform="translate(672 458)" fill="#fff" stroke="#707070" stroke-width="1">
        <ellipse cx="10.5" cy="11" rx="10.5" ry="11" stroke="none"/>
        <ellipse cx="10.5" cy="11" rx="10" ry="10.5" fill="none"/>
      </g>
      <g id="Ellipse_127" data-name="Ellipse 127" transform="translate(693 458)" fill="#fff" stroke="#707070" stroke-width="1">
        <ellipse cx="10.5" cy="11" rx="10.5" ry="11" stroke="none"/>
        <ellipse cx="10.5" cy="11" rx="10" ry="10.5" fill="none"/>
      </g>
      <g id="Ellipse_128" data-name="Ellipse 128" transform="translate(714 458)" fill="#fff" stroke="#707070" stroke-width="1">
        <ellipse cx="10.5" cy="11" rx="10.5" ry="11" stroke="none"/>
        <ellipse cx="10.5" cy="11" rx="10" ry="10.5" fill="none"/>
      </g>
      <g id="Ellipse_129" data-name="Ellipse 129" transform="translate(714 477)" fill="#fff" stroke="#707070" stroke-width="1">
        <ellipse cx="10.5" cy="11" rx="10.5" ry="11" stroke="none"/>
        <ellipse cx="10.5" cy="11" rx="10" ry="10.5" fill="none"/>
      </g>
      <g id="Ellipse_130" data-name="Ellipse 130" transform="translate(693 477)" fill="#fff" stroke="#707070" stroke-width="1">
        <ellipse cx="10.5" cy="11" rx="10.5" ry="11" stroke="none"/>
        <ellipse cx="10.5" cy="11" rx="10" ry="10.5" fill="none"/>
      </g>
      <g id="Ellipse_131" data-name="Ellipse 131" transform="translate(672 477)" fill="#fff" stroke="#707070" stroke-width="1">
        <ellipse cx="10.5" cy="11" rx="10.5" ry="11" stroke="none"/>
        <ellipse cx="10.5" cy="11" rx="10" ry="10.5" fill="none"/>
      </g>
      <g id="Ellipse_132" data-name="Ellipse 132" transform="translate(714 499)" fill="#fff" stroke="#707070" stroke-width="1">
        <ellipse cx="10.5" cy="11" rx="10.5" ry="11" stroke="none"/>
        <ellipse cx="10.5" cy="11" rx="10" ry="10.5" fill="none"/>
      </g>
      <g id="Ellipse_133" data-name="Ellipse 133" transform="translate(693 499)" fill="#fff" stroke="#707070" stroke-width="1">
        <ellipse cx="10.5" cy="11" rx="10.5" ry="11" stroke="none"/>
        <ellipse cx="10.5" cy="11" rx="10" ry="10.5" fill="none"/>
      </g>
      <g id="Ellipse_135" data-name="Ellipse 135" transform="translate(693 518)" fill="#fff" stroke="#707070" stroke-width="1">
        <ellipse cx="10.5" cy="11" rx="10.5" ry="11" stroke="none"/>
        <ellipse cx="10.5" cy="11" rx="10" ry="10.5" fill="none"/>
      </g>
      <g id="Ellipse_134" data-name="Ellipse 134" transform="translate(672 499)" fill="#fff" stroke="#707070" stroke-width="1">
        <ellipse cx="10.5" cy="11" rx="10.5" ry="11" stroke="none"/>
        <ellipse cx="10.5" cy="11" rx="10" ry="10.5" fill="none"/>
      </g>
    </g>
    <g id="Group_26" data-name="Group 26" transform="translate(1153 -158)">
      <g id="Ellipse_126-2" data-name="Ellipse 126" transform="translate(672 458)" fill="#fff" stroke="#707070" stroke-width="1">
        <ellipse cx="10.5" cy="11" rx="10.5" ry="11" stroke="none"/>
        <ellipse cx="10.5" cy="11" rx="10" ry="10.5" fill="none"/>
      </g>
      <g id="Ellipse_127-2" data-name="Ellipse 127" transform="translate(693 458)" fill="#fff" stroke="#707070" stroke-width="1">
        <ellipse cx="10.5" cy="11" rx="10.5" ry="11" stroke="none"/>
        <ellipse cx="10.5" cy="11" rx="10" ry="10.5" fill="none"/>
      </g>
      <g id="Ellipse_128-2" data-name="Ellipse 128" transform="translate(714 458)" fill="#fff" stroke="#707070" stroke-width="1">
        <ellipse cx="10.5" cy="11" rx="10.5" ry="11" stroke="none"/>
        <ellipse cx="10.5" cy="11" rx="10" ry="10.5" fill="none"/>
      </g>
      <g id="Ellipse_129-2" data-name="Ellipse 129" transform="translate(714 477)" fill="#fff" stroke="#707070" stroke-width="1">
        <ellipse cx="10.5" cy="11" rx="10.5" ry="11" stroke="none"/>
        <ellipse cx="10.5" cy="11" rx="10" ry="10.5" fill="none"/>
      </g>
      <g id="Ellipse_130-2" data-name="Ellipse 130" transform="translate(693 477)" fill="#fff" stroke="#707070" stroke-width="1">
        <ellipse cx="10.5" cy="11" rx="10.5" ry="11" stroke="none"/>
        <ellipse cx="10.5" cy="11" rx="10" ry="10.5" fill="none"/>
      </g>
      <g id="Ellipse_131-2" data-name="Ellipse 131" transform="translate(672 477)" fill="#fff" stroke="#707070" stroke-width="1">
        <ellipse cx="10.5" cy="11" rx="10.5" ry="11" stroke="none"/>
        <ellipse cx="10.5" cy="11" rx="10" ry="10.5" fill="none"/>
      </g>
      <g id="Ellipse_132-2" data-name="Ellipse 132" transform="translate(714 499)" fill="#fff" stroke="#707070" stroke-width="1">
        <ellipse cx="10.5" cy="11" rx="10.5" ry="11" stroke="none"/>
        <ellipse cx="10.5" cy="11" rx="10" ry="10.5" fill="none"/>
      </g>
      <g id="Ellipse_133-2" data-name="Ellipse 133" transform="translate(693 499)" fill="#fff" stroke="#707070" stroke-width="1">
        <ellipse cx="10.5" cy="11" rx="10.5" ry="11" stroke="none"/>
        <ellipse cx="10.5" cy="11" rx="10" ry="10.5" fill="none"/>
      </g>
      <g id="Ellipse_135-2" data-name="Ellipse 135" transform="translate(693 518)" fill="#fff" stroke="#707070" stroke-width="1">
        <ellipse cx="10.5" cy="11" rx="10.5" ry="11" stroke="none"/>
        <ellipse cx="10.5" cy="11" rx="10" ry="10.5" fill="none"/>
      </g>
      <g id="Ellipse_134-2" data-name="Ellipse 134" transform="translate(672 499)" fill="#fff" stroke="#707070" stroke-width="1">
        <ellipse cx="10.5" cy="11" rx="10.5" ry="11" stroke="none"/>
        <ellipse cx="10.5" cy="11" rx="10" ry="10.5" fill="none"/>
      </g>
    </g>
  </g>
</svg>
