<svg id="Group_26" data-name="Group 26" xmlns="http://www.w3.org/2000/svg" width="1920" height="1071" viewBox="0 0 1920 1071">
  <g id="Path_806" data-name="Path 806" fill="rgba(74,51,248,0.75)">
    <path d="M 1919.5 257.5 L 0.5 257.5 L 0.5 0.5 L 1919.5 0.5 L 1919.5 257.5 Z" stroke="none"/>
    <path d="M 1 1 L 1 257 L 1919 257 L 1919 1 L 1 1 M 0 0 L 1920 0 L 1920 258 L 0 258 L 0 0 Z" stroke="none" fill="#707070"/>
  </g>
  <g id="Path_807" data-name="Path 807" transform="translate(0 766)" fill="rgba(1,13,77,0.95)">
    <path d="M 1919.5 304.5 L 0.5 304.5 L 0.5 0.5 L 1919.5 0.5 L 1919.5 304.5 Z" stroke="none"/>
    <path d="M 1 1 L 1 304 L 1919 304 L 1919 1 L 1 1 M 0 0 L 1920 0 L 1920 305 L 0 305 L 0 0 Z" stroke="none" fill="#707070"/>
  </g>
  <g id="Group_20" data-name="Group 20">
    <g id="Ellipse_116" data-name="Ellipse 116" transform="translate(32 46)" fill="#fff" stroke="#707070" stroke-width="1">
      <ellipse cx="11.5" cy="13" rx="11.5" ry="13" stroke="none"/>
      <ellipse cx="11.5" cy="13" rx="11" ry="12.5" fill="none"/>
    </g>
    <g id="Ellipse_117" data-name="Ellipse 117" transform="translate(72 46)" fill="#fff" stroke="#707070" stroke-width="1">
      <ellipse cx="11.5" cy="13" rx="11.5" ry="13" stroke="none"/>
      <ellipse cx="11.5" cy="13" rx="11" ry="12.5" fill="none"/>
    </g>
    <g id="Ellipse_119" data-name="Ellipse 119" transform="translate(72 103)" fill="#fff" stroke="#707070" stroke-width="1">
      <ellipse cx="11.5" cy="13" rx="11.5" ry="13" stroke="none"/>
      <ellipse cx="11.5" cy="13" rx="11" ry="12.5" fill="none"/>
    </g>
    <g id="Ellipse_120" data-name="Ellipse 120" transform="translate(112 103)" fill="#fff" stroke="#707070" stroke-width="1">
      <ellipse cx="11.5" cy="13" rx="11.5" ry="13" stroke="none"/>
      <ellipse cx="11.5" cy="13" rx="11" ry="12.5" fill="none"/>
    </g>
    <g id="Ellipse_121" data-name="Ellipse 121" transform="translate(112 46)" fill="#fff" stroke="#707070" stroke-width="1">
      <ellipse cx="11.5" cy="13" rx="11.5" ry="13" stroke="none"/>
      <ellipse cx="11.5" cy="13" rx="11" ry="12.5" fill="none"/>
    </g>
    <g id="Ellipse_118" data-name="Ellipse 118" transform="translate(32 103)" fill="#fff" stroke="#707070" stroke-width="1">
      <ellipse cx="11.5" cy="13" rx="11.5" ry="13" stroke="none"/>
      <ellipse cx="11.5" cy="13" rx="11" ry="12.5" fill="none"/>
    </g>
    <g id="Ellipse_122" data-name="Ellipse 122" transform="translate(32 160)" fill="#fff" stroke="#707070" stroke-width="1">
      <ellipse cx="11.5" cy="13" rx="11.5" ry="13" stroke="none"/>
      <ellipse cx="11.5" cy="13" rx="11" ry="12.5" fill="none"/>
    </g>
    <g id="Ellipse_123" data-name="Ellipse 123" transform="translate(72 217)" fill="#fff" stroke="#707070" stroke-width="1">
      <ellipse cx="11.5" cy="13" rx="11.5" ry="13" stroke="none"/>
      <ellipse cx="11.5" cy="13" rx="11" ry="12.5" fill="none"/>
    </g>
    <g id="Ellipse_124" data-name="Ellipse 124" transform="translate(112 160)" fill="#fff" stroke="#707070" stroke-width="1">
      <ellipse cx="11.5" cy="13" rx="11.5" ry="13" stroke="none"/>
      <ellipse cx="11.5" cy="13" rx="11" ry="12.5" fill="none"/>
    </g>
    <g id="Ellipse_125" data-name="Ellipse 125" transform="translate(72 160)" fill="#fff" stroke="#707070" stroke-width="1">
      <ellipse cx="11.5" cy="13" rx="11.5" ry="13" stroke="none"/>
      <ellipse cx="11.5" cy="13" rx="11" ry="12.5" fill="none"/>
    </g>
  </g>
  <g id="Group_21" data-name="Group 21" transform="translate(1745)">
    <g id="Ellipse_116-2" data-name="Ellipse 116" transform="translate(32 46)" fill="#fff" stroke="#707070" stroke-width="1">
      <ellipse cx="11.5" cy="13" rx="11.5" ry="13" stroke="none"/>
      <ellipse cx="11.5" cy="13" rx="11" ry="12.5" fill="none"/>
    </g>
    <g id="Ellipse_117-2" data-name="Ellipse 117" transform="translate(72 46)" fill="#fff" stroke="#707070" stroke-width="1">
      <ellipse cx="11.5" cy="13" rx="11.5" ry="13" stroke="none"/>
      <ellipse cx="11.5" cy="13" rx="11" ry="12.5" fill="none"/>
    </g>
    <g id="Ellipse_119-2" data-name="Ellipse 119" transform="translate(72 103)" fill="#fff" stroke="#707070" stroke-width="1">
      <ellipse cx="11.5" cy="13" rx="11.5" ry="13" stroke="none"/>
      <ellipse cx="11.5" cy="13" rx="11" ry="12.5" fill="none"/>
    </g>
    <g id="Ellipse_120-2" data-name="Ellipse 120" transform="translate(112 103)" fill="#fff" stroke="#707070" stroke-width="1">
      <ellipse cx="11.5" cy="13" rx="11.5" ry="13" stroke="none"/>
      <ellipse cx="11.5" cy="13" rx="11" ry="12.5" fill="none"/>
    </g>
    <g id="Ellipse_121-2" data-name="Ellipse 121" transform="translate(112 46)" fill="#fff" stroke="#707070" stroke-width="1">
      <ellipse cx="11.5" cy="13" rx="11.5" ry="13" stroke="none"/>
      <ellipse cx="11.5" cy="13" rx="11" ry="12.5" fill="none"/>
    </g>
    <g id="Ellipse_118-2" data-name="Ellipse 118" transform="translate(32 103)" fill="#fff" stroke="#707070" stroke-width="1">
      <ellipse cx="11.5" cy="13" rx="11.5" ry="13" stroke="none"/>
      <ellipse cx="11.5" cy="13" rx="11" ry="12.5" fill="none"/>
    </g>
    <g id="Ellipse_122-2" data-name="Ellipse 122" transform="translate(32 160)" fill="#fff" stroke="#707070" stroke-width="1">
      <ellipse cx="11.5" cy="13" rx="11.5" ry="13" stroke="none"/>
      <ellipse cx="11.5" cy="13" rx="11" ry="12.5" fill="none"/>
    </g>
    <g id="Ellipse_123-2" data-name="Ellipse 123" transform="translate(72 217)" fill="#fff" stroke="#707070" stroke-width="1">
      <ellipse cx="11.5" cy="13" rx="11.5" ry="13" stroke="none"/>
      <ellipse cx="11.5" cy="13" rx="11" ry="12.5" fill="none"/>
    </g>
    <g id="Ellipse_124-2" data-name="Ellipse 124" transform="translate(112 160)" fill="#fff" stroke="#707070" stroke-width="1">
      <ellipse cx="11.5" cy="13" rx="11.5" ry="13" stroke="none"/>
      <ellipse cx="11.5" cy="13" rx="11" ry="12.5" fill="none"/>
    </g>
    <g id="Ellipse_125-2" data-name="Ellipse 125" transform="translate(72 160)" fill="#fff" stroke="#707070" stroke-width="1">
      <ellipse cx="11.5" cy="13" rx="11.5" ry="13" stroke="none"/>
      <ellipse cx="11.5" cy="13" rx="11" ry="12.5" fill="none"/>
    </g>
  </g>
  <g id="Group_22" data-name="Group 22" transform="translate(1768 360)">
    <g id="Ellipse_116-3" data-name="Ellipse 116" transform="translate(32 46)" fill="#fff" stroke="#707070" stroke-width="1">
      <ellipse cx="11.5" cy="13" rx="11.5" ry="13" stroke="none"/>
      <ellipse cx="11.5" cy="13" rx="11" ry="12.5" fill="none"/>
    </g>
    <g id="Ellipse_117-3" data-name="Ellipse 117" transform="translate(72 46)" fill="#fff" stroke="#707070" stroke-width="1">
      <ellipse cx="11.5" cy="13" rx="11.5" ry="13" stroke="none"/>
      <ellipse cx="11.5" cy="13" rx="11" ry="12.5" fill="none"/>
    </g>
    <g id="Ellipse_119-3" data-name="Ellipse 119" transform="translate(72 103)" fill="#fff" stroke="#707070" stroke-width="1">
      <ellipse cx="11.5" cy="13" rx="11.5" ry="13" stroke="none"/>
      <ellipse cx="11.5" cy="13" rx="11" ry="12.5" fill="none"/>
    </g>
    <g id="Ellipse_120-3" data-name="Ellipse 120" transform="translate(112 103)" fill="#fff" stroke="#707070" stroke-width="1">
      <ellipse cx="11.5" cy="13" rx="11.5" ry="13" stroke="none"/>
      <ellipse cx="11.5" cy="13" rx="11" ry="12.5" fill="none"/>
    </g>
    <g id="Ellipse_121-3" data-name="Ellipse 121" transform="translate(112 46)" fill="#fff" stroke="#707070" stroke-width="1">
      <ellipse cx="11.5" cy="13" rx="11.5" ry="13" stroke="none"/>
      <ellipse cx="11.5" cy="13" rx="11" ry="12.5" fill="none"/>
    </g>
    <g id="Ellipse_118-3" data-name="Ellipse 118" transform="translate(32 103)" fill="#fff" stroke="#707070" stroke-width="1">
      <ellipse cx="11.5" cy="13" rx="11.5" ry="13" stroke="none"/>
      <ellipse cx="11.5" cy="13" rx="11" ry="12.5" fill="none"/>
    </g>
    <g id="Ellipse_122-3" data-name="Ellipse 122" transform="translate(32 160)" fill="#fff" stroke="#707070" stroke-width="1">
      <ellipse cx="11.5" cy="13" rx="11.5" ry="13" stroke="none"/>
      <ellipse cx="11.5" cy="13" rx="11" ry="12.5" fill="none"/>
    </g>
    <g id="Ellipse_123-3" data-name="Ellipse 123" transform="translate(72 217)" fill="#fff" stroke="#707070" stroke-width="1">
      <ellipse cx="11.5" cy="13" rx="11.5" ry="13" stroke="none"/>
      <ellipse cx="11.5" cy="13" rx="11" ry="12.5" fill="none"/>
    </g>
    <g id="Ellipse_124-3" data-name="Ellipse 124" transform="translate(112 160)" fill="#fff" stroke="#707070" stroke-width="1">
      <ellipse cx="11.5" cy="13" rx="11.5" ry="13" stroke="none"/>
      <ellipse cx="11.5" cy="13" rx="11" ry="12.5" fill="none"/>
    </g>
    <g id="Ellipse_125-3" data-name="Ellipse 125" transform="translate(72 160)" fill="#fff" stroke="#707070" stroke-width="1">
      <ellipse cx="11.5" cy="13" rx="11.5" ry="13" stroke="none"/>
      <ellipse cx="11.5" cy="13" rx="11" ry="12.5" fill="none"/>
    </g>
  </g>
  <g id="Group_23" data-name="Group 23" transform="translate(0 360)">
    <g id="Ellipse_116-4" data-name="Ellipse 116" transform="translate(32 46)" fill="#fff" stroke="#707070" stroke-width="1">
      <ellipse cx="11.5" cy="13" rx="11.5" ry="13" stroke="none"/>
      <ellipse cx="11.5" cy="13" rx="11" ry="12.5" fill="none"/>
    </g>
    <g id="Ellipse_117-4" data-name="Ellipse 117" transform="translate(72 46)" fill="#fff" stroke="#707070" stroke-width="1">
      <ellipse cx="11.5" cy="13" rx="11.5" ry="13" stroke="none"/>
      <ellipse cx="11.5" cy="13" rx="11" ry="12.5" fill="none"/>
    </g>
    <g id="Ellipse_119-4" data-name="Ellipse 119" transform="translate(72 103)" fill="#fff" stroke="#707070" stroke-width="1">
      <ellipse cx="11.5" cy="13" rx="11.5" ry="13" stroke="none"/>
      <ellipse cx="11.5" cy="13" rx="11" ry="12.5" fill="none"/>
    </g>
    <g id="Ellipse_120-4" data-name="Ellipse 120" transform="translate(112 103)" fill="#fff" stroke="#707070" stroke-width="1">
      <ellipse cx="11.5" cy="13" rx="11.5" ry="13" stroke="none"/>
      <ellipse cx="11.5" cy="13" rx="11" ry="12.5" fill="none"/>
    </g>
    <g id="Ellipse_121-4" data-name="Ellipse 121" transform="translate(112 46)" fill="#fff" stroke="#707070" stroke-width="1">
      <ellipse cx="11.5" cy="13" rx="11.5" ry="13" stroke="none"/>
      <ellipse cx="11.5" cy="13" rx="11" ry="12.5" fill="none"/>
    </g>
    <g id="Ellipse_118-4" data-name="Ellipse 118" transform="translate(32 103)" fill="#fff" stroke="#707070" stroke-width="1">
      <ellipse cx="11.5" cy="13" rx="11.5" ry="13" stroke="none"/>
      <ellipse cx="11.5" cy="13" rx="11" ry="12.5" fill="none"/>
    </g>
    <g id="Ellipse_122-4" data-name="Ellipse 122" transform="translate(32 160)" fill="#fff" stroke="#707070" stroke-width="1">
      <ellipse cx="11.5" cy="13" rx="11.5" ry="13" stroke="none"/>
      <ellipse cx="11.5" cy="13" rx="11" ry="12.5" fill="none"/>
    </g>
    <g id="Ellipse_123-4" data-name="Ellipse 123" transform="translate(72 217)" fill="#fff" stroke="#707070" stroke-width="1">
      <ellipse cx="11.5" cy="13" rx="11.5" ry="13" stroke="none"/>
      <ellipse cx="11.5" cy="13" rx="11" ry="12.5" fill="none"/>
    </g>
    <g id="Ellipse_124-4" data-name="Ellipse 124" transform="translate(112 160)" fill="#fff" stroke="#707070" stroke-width="1">
      <ellipse cx="11.5" cy="13" rx="11.5" ry="13" stroke="none"/>
      <ellipse cx="11.5" cy="13" rx="11" ry="12.5" fill="none"/>
    </g>
    <g id="Ellipse_125-4" data-name="Ellipse 125" transform="translate(72 160)" fill="#fff" stroke="#707070" stroke-width="1">
      <ellipse cx="11.5" cy="13" rx="11.5" ry="13" stroke="none"/>
      <ellipse cx="11.5" cy="13" rx="11" ry="12.5" fill="none"/>
    </g>
  </g>
  <g id="Group_24" data-name="Group 24" transform="translate(0 783)">
    <g id="Ellipse_116-5" data-name="Ellipse 116" transform="translate(32 46)" fill="#fff" stroke="#707070" stroke-width="1">
      <ellipse cx="11.5" cy="13" rx="11.5" ry="13" stroke="none"/>
      <ellipse cx="11.5" cy="13" rx="11" ry="12.5" fill="none"/>
    </g>
    <g id="Ellipse_117-5" data-name="Ellipse 117" transform="translate(72 46)" fill="#fff" stroke="#707070" stroke-width="1">
      <ellipse cx="11.5" cy="13" rx="11.5" ry="13" stroke="none"/>
      <ellipse cx="11.5" cy="13" rx="11" ry="12.5" fill="none"/>
    </g>
    <g id="Ellipse_119-5" data-name="Ellipse 119" transform="translate(72 103)" fill="#fff" stroke="#707070" stroke-width="1">
      <ellipse cx="11.5" cy="13" rx="11.5" ry="13" stroke="none"/>
      <ellipse cx="11.5" cy="13" rx="11" ry="12.5" fill="none"/>
    </g>
    <g id="Ellipse_120-5" data-name="Ellipse 120" transform="translate(112 103)" fill="#fff" stroke="#707070" stroke-width="1">
      <ellipse cx="11.5" cy="13" rx="11.5" ry="13" stroke="none"/>
      <ellipse cx="11.5" cy="13" rx="11" ry="12.5" fill="none"/>
    </g>
    <g id="Ellipse_121-5" data-name="Ellipse 121" transform="translate(112 46)" fill="#fff" stroke="#707070" stroke-width="1">
      <ellipse cx="11.5" cy="13" rx="11.5" ry="13" stroke="none"/>
      <ellipse cx="11.5" cy="13" rx="11" ry="12.5" fill="none"/>
    </g>
    <g id="Ellipse_118-5" data-name="Ellipse 118" transform="translate(32 103)" fill="#fff" stroke="#707070" stroke-width="1">
      <ellipse cx="11.5" cy="13" rx="11.5" ry="13" stroke="none"/>
      <ellipse cx="11.5" cy="13" rx="11" ry="12.5" fill="none"/>
    </g>
    <g id="Ellipse_122-5" data-name="Ellipse 122" transform="translate(32 160)" fill="#fff" stroke="#707070" stroke-width="1">
      <ellipse cx="11.5" cy="13" rx="11.5" ry="13" stroke="none"/>
      <ellipse cx="11.5" cy="13" rx="11" ry="12.5" fill="none"/>
    </g>
    <g id="Ellipse_123-5" data-name="Ellipse 123" transform="translate(72 217)" fill="#fff" stroke="#707070" stroke-width="1">
      <ellipse cx="11.5" cy="13" rx="11.5" ry="13" stroke="none"/>
      <ellipse cx="11.5" cy="13" rx="11" ry="12.5" fill="none"/>
    </g>
    <g id="Ellipse_124-5" data-name="Ellipse 124" transform="translate(112 160)" fill="#fff" stroke="#707070" stroke-width="1">
      <ellipse cx="11.5" cy="13" rx="11.5" ry="13" stroke="none"/>
      <ellipse cx="11.5" cy="13" rx="11" ry="12.5" fill="none"/>
    </g>
    <g id="Ellipse_125-5" data-name="Ellipse 125" transform="translate(72 160)" fill="#fff" stroke="#707070" stroke-width="1">
      <ellipse cx="11.5" cy="13" rx="11.5" ry="13" stroke="none"/>
      <ellipse cx="11.5" cy="13" rx="11" ry="12.5" fill="none"/>
    </g>
  </g>
  <g id="Group_25" data-name="Group 25" transform="translate(1768 783)">
    <g id="Ellipse_116-6" data-name="Ellipse 116" transform="translate(32 46)" fill="#fff" stroke="#707070" stroke-width="1">
      <ellipse cx="11.5" cy="13" rx="11.5" ry="13" stroke="none"/>
      <ellipse cx="11.5" cy="13" rx="11" ry="12.5" fill="none"/>
    </g>
    <g id="Ellipse_117-6" data-name="Ellipse 117" transform="translate(72 46)" fill="#fff" stroke="#707070" stroke-width="1">
      <ellipse cx="11.5" cy="13" rx="11.5" ry="13" stroke="none"/>
      <ellipse cx="11.5" cy="13" rx="11" ry="12.5" fill="none"/>
    </g>
    <g id="Ellipse_119-6" data-name="Ellipse 119" transform="translate(72 103)" fill="#fff" stroke="#707070" stroke-width="1">
      <ellipse cx="11.5" cy="13" rx="11.5" ry="13" stroke="none"/>
      <ellipse cx="11.5" cy="13" rx="11" ry="12.5" fill="none"/>
    </g>
    <g id="Ellipse_120-6" data-name="Ellipse 120" transform="translate(112 103)" fill="#fff" stroke="#707070" stroke-width="1">
      <ellipse cx="11.5" cy="13" rx="11.5" ry="13" stroke="none"/>
      <ellipse cx="11.5" cy="13" rx="11" ry="12.5" fill="none"/>
    </g>
    <g id="Ellipse_121-6" data-name="Ellipse 121" transform="translate(112 46)" fill="#fff" stroke="#707070" stroke-width="1">
      <ellipse cx="11.5" cy="13" rx="11.5" ry="13" stroke="none"/>
      <ellipse cx="11.5" cy="13" rx="11" ry="12.5" fill="none"/>
    </g>
    <g id="Ellipse_118-6" data-name="Ellipse 118" transform="translate(32 103)" fill="#fff" stroke="#707070" stroke-width="1">
      <ellipse cx="11.5" cy="13" rx="11.5" ry="13" stroke="none"/>
      <ellipse cx="11.5" cy="13" rx="11" ry="12.5" fill="none"/>
    </g>
    <g id="Ellipse_122-6" data-name="Ellipse 122" transform="translate(32 160)" fill="#fff" stroke="#707070" stroke-width="1">
      <ellipse cx="11.5" cy="13" rx="11.5" ry="13" stroke="none"/>
      <ellipse cx="11.5" cy="13" rx="11" ry="12.5" fill="none"/>
    </g>
    <g id="Ellipse_123-6" data-name="Ellipse 123" transform="translate(72 217)" fill="#fff" stroke="#707070" stroke-width="1">
      <ellipse cx="11.5" cy="13" rx="11.5" ry="13" stroke="none"/>
      <ellipse cx="11.5" cy="13" rx="11" ry="12.5" fill="none"/>
    </g>
    <g id="Ellipse_124-6" data-name="Ellipse 124" transform="translate(112 160)" fill="#fff" stroke="#707070" stroke-width="1">
      <ellipse cx="11.5" cy="13" rx="11.5" ry="13" stroke="none"/>
      <ellipse cx="11.5" cy="13" rx="11" ry="12.5" fill="none"/>
    </g>
    <g id="Ellipse_125-6" data-name="Ellipse 125" transform="translate(72 160)" fill="#fff" stroke="#707070" stroke-width="1">
      <ellipse cx="11.5" cy="13" rx="11.5" ry="13" stroke="none"/>
      <ellipse cx="11.5" cy="13" rx="11" ry="12.5" fill="none"/>
    </g>
  </g>
</svg>
